<?xml version="1.0" encoding="UTF-8"?>
<svg version="1.1" xmlns="http://www.w3.org/2000/svg" width="390" height="302">
<path d="M0 0 C1.08087891 -0.0299707 1.08087891 -0.0299707 2.18359375 -0.06054688 C7.7184818 -0.05554246 11.0006133 1.17989948 15.5 4.4375 C18.27035512 8.19121338 18.88366598 10.8857683 18.93237305 15.51293945 C18.95216721 16.71380692 18.97196136 17.91467438 18.99235535 19.15193176 C19.00194023 21.08186226 19.00194023 21.08186226 19.01171875 23.05078125 C19.02857558 24.38886657 19.04672718 25.72693616 19.06611633 27.06498718 C19.11351421 30.57478924 19.14338909 34.08452747 19.16955566 37.59454346 C19.19941315 41.1809957 19.24592552 44.76722827 19.29101562 48.35351562 C19.37693208 55.38138504 19.44432894 62.40932768 19.5 69.4375 C20.52856613 68.70665443 20.52856613 68.70665443 21.57791138 67.96104431 C22.47790863 67.32542068 23.37790588 66.68979706 24.30517578 66.03491211 C25.19713654 65.40330673 26.08909729 64.77170135 27.00808716 64.12095642 C37.6748626 56.91482493 52.49062404 56.75227977 64.84912109 58.83300781 C84.25946891 63.02507168 100.84565793 74.21792641 112.01171875 90.6640625 C120.83711532 104.66909988 126.15999894 121.72060926 124.5 138.4375 C124.43570801 139.0979834 124.37141602 139.7584668 124.30517578 140.43896484 C122.62768666 156.3185091 118.34762646 170.32795727 107.5 182.4375 C106.93410156 183.13230469 106.36820312 183.82710937 105.78515625 184.54296875 C94.7505496 197.8795795 78.55355292 206.24664912 61.5 208.4375 C55.98131693 208.80826238 50.4665961 208.94931589 44.9375 209.0625 C43.37279613 209.09982167 41.8080989 209.13742304 40.2434082 209.17529297 C26.99481356 209.48133143 13.75146488 209.63608881 0.5 209.4375 C-1.39516357 209.41067139 -1.39516357 209.41067139 -3.32861328 209.38330078 C-7.34478443 209.32078559 -11.3595847 209.22500973 -15.375 209.125 C-16.60516846 209.10260254 -17.83533691 209.08020508 -19.1027832 209.05712891 C-32.85202567 208.64233366 -46.01889568 205.85426198 -56.3125 196.125 C-64.40715206 187.31383567 -70.63904782 176.62426118 -70.61352539 164.47558594 C-70.61341209 162.67417145 -70.61341209 162.67417145 -70.61329651 160.83636475 C-70.60813522 159.54458313 -70.60297394 158.25280151 -70.59765625 156.921875 C-70.59579017 155.58237765 -70.59436716 154.24287962 -70.59336853 152.90338135 C-70.58955835 149.38527528 -70.57974091 145.86721079 -70.56866455 142.34912109 C-70.55841817 138.75619061 -70.553864 135.16325339 -70.54882812 131.5703125 C-70.53811725 124.52602471 -70.52105887 117.48176507 -70.5 110.4375 C-71.985 109.9425 -71.985 109.9425 -73.5 109.4375 C-75.18711423 107.7915349 -76.8545622 106.12512851 -78.5 104.4375 C-79.16 104.1075 -79.82 103.7775 -80.5 103.4375 C-80.5 102.7775 -80.5 102.1175 -80.5 101.4375 C-90.63318447 99.27986376 -102.98249377 96.97539872 -112.44140625 102.58984375 C-117.19023231 106.29249215 -120.54891382 110.73823075 -122.5 116.4375 C-123.10385854 121.75812199 -123.14290836 127.0111302 -123.09158516 132.36117935 C-123.06597923 135.05269828 -123.07102219 137.7426999 -123.08348083 140.43429565 C-123.10413624 146.14386733 -123.08458812 151.85296003 -123.0625 157.5625 C-123.0413477 164.19012797 -123.03687973 170.81726368 -123.06300163 177.44488144 C-123.06634945 180.08796909 -123.04519151 182.73010255 -123.02259827 185.37307739 C-123.02511051 187.00148727 -123.02867152 188.62989597 -123.03344727 190.25830078 C-123.02056168 190.985755 -123.00767609 191.71320923 -122.99440002 192.46270752 C-123.04803763 197.96985143 -124.42259834 201.02525725 -127.5 205.4375 C-132.90081815 208.71011471 -137.92867323 208.92800243 -144.0625 208.875 C-144.88685547 208.89498047 -145.71121094 208.91496094 -146.56054688 208.93554688 C-151.9914497 208.93120563 -155.31865792 208.2164272 -159.5 204.4375 C-163.34622137 198.77745854 -162.99109979 193.02224699 -163.046875 186.42578125 C-163.06778702 185.21652985 -163.08869904 184.00727844 -163.11024475 182.76138306 C-163.16254552 179.44859911 -163.20082864 176.13630723 -163.23047256 172.82328415 C-163.25002241 170.74762091 -163.27425075 168.67206234 -163.29989624 166.59646606 C-163.56719879 144.59832205 -163.55867105 122.59885197 -163.332901 100.60042953 C-163.31252789 98.37804226 -163.29898417 96.15570632 -163.28723145 93.93325806 C-163.26375485 89.77660075 -163.20628615 85.62110978 -163.14453125 81.46484375 C-163.14010513 80.23013336 -163.13567902 78.99542297 -163.13111877 77.72329712 C-163.00387883 71.38616013 -162.86314408 67.21070049 -158.5 62.4375 C-152.8776158 58.36611834 -144.06806449 58.83530694 -137.42578125 59.7109375 C-132.23286262 60.7594125 -129.20406219 62.64524585 -125.5 66.4375 C-122.83524352 70.7980106 -123.30587547 75.48732442 -123.5 80.4375 C-123.13390625 79.96441406 -122.7678125 79.49132812 -122.390625 79.00390625 C-112.88437721 67.39270359 -102.04456888 60.67117159 -87.02734375 59.06640625 C-72.43434138 58.52348733 -59.64092026 62.78175827 -48.48046875 72.12890625 C-38.51678208 81.48478633 -32.47732664 93.84704739 -31.5 107.4375 C-31.38800363 111.68301582 -31.41015781 115.92519725 -31.4296875 120.171875 C-31.42111192 122.62630921 -31.41063927 125.08073739 -31.3984375 127.53515625 C-31.38168052 131.37595385 -31.375183 135.21538358 -31.40039062 139.05615234 C-31.42129369 142.78307436 -31.39819227 146.50757015 -31.3671875 150.234375 C-31.38457977 151.38339294 -31.40197205 152.53241089 -31.41989136 153.71624756 C-31.48442772 159.37019951 -31.48442772 159.37019951 -29.04095459 164.24015808 C-27.24655691 165.57365231 -25.54151075 166.53523303 -23.5 167.4375 C-22.73236328 167.80721924 -21.96472656 168.17693848 -21.17382812 168.55786133 C-13.54932374 170.86797495 -5.89987183 170.99934815 2 171.125 C3.44118232 171.15714655 4.88234483 171.19019376 6.32348633 171.22412109 C10.38214177 171.31477879 14.44076028 171.37867044 18.5 171.4375 C19.45696777 171.45409668 20.41393555 171.47069336 21.39990234 171.48779297 C26.43682972 171.56892065 31.46381365 171.55254262 36.5 171.4375 C37.36189941 171.41961426 38.22379883 171.40172852 39.11181641 171.38330078 C41.90880402 171.31606314 44.70399061 171.22462087 47.5 171.125 C48.77363403 171.09140381 48.77363403 171.09140381 50.07299805 171.05712891 C61.72763223 170.55194618 70.22545059 167.04084676 78.2890625 158.5546875 C85.76952768 149.4528407 86.42684358 138.81445061 85.71142578 127.47802734 C84.83804044 119.04874944 81.3584421 111.5470182 75.5 105.4375 C74.84 105.1075 74.18 104.7775 73.5 104.4375 C73.5 103.7775 73.5 103.1175 73.5 102.4375 C72.77683594 102.15132813 72.05367187 101.86515625 71.30859375 101.5703125 C69.55965292 100.86489826 67.82026749 100.13465983 66.09765625 99.3671875 C56.18504958 95.24329875 45.83181774 94.91546847 35.67578125 98.5390625 C34.95777344 98.83554688 34.23976562 99.13203125 33.5 99.4375 C32.53126953 99.82035156 32.53126953 99.82035156 31.54296875 100.2109375 C26.18843516 102.75404931 23.11936952 107.22513045 20.5 112.4375 C19.47183157 116.4629352 19.37577487 120.28125952 19.359375 124.42578125 C19.34104455 125.78582401 19.32147401 127.14585051 19.30078125 128.50585938 C19.27189564 130.62552491 19.25000135 132.74413884 19.24951172 134.86401367 C19.22388252 150.57288311 19.22388252 150.57288311 13.5 156.4375 C9.06637078 159.39325282 4.90598307 158.84464037 -0.3125 158.875 C-1.29798828 158.90787109 -2.28347656 158.94074219 -3.29882812 158.97460938 C-11.44695605 159.03480374 -11.44695605 159.03480374 -15.07421875 156.22265625 C-18.83778846 151.90152066 -19.74834345 148.35544613 -19.76742554 142.68901062 C-19.78022049 140.9669339 -19.78022049 140.9669339 -19.79327393 139.21006775 C-19.79191437 137.33430809 -19.79191437 137.33430809 -19.79052734 135.4206543 C-19.79651534 134.08315659 -19.80332151 132.74566234 -19.81088257 131.40817261 C-19.82852356 127.78199557 -19.83323717 124.15591298 -19.83451414 120.52969718 C-19.83593752 118.26168386 -19.84021069 115.99369441 -19.84550858 113.72568703 C-19.86400345 105.8061229 -19.87217998 97.88662602 -19.87060547 89.96704102 C-19.86940462 82.59669037 -19.89049709 75.22663283 -19.9220928 67.85635632 C-19.94828765 61.51901398 -19.95897141 55.18176717 -19.95769465 48.84437114 C-19.9571859 45.0635944 -19.9628203 41.28307816 -19.98405075 37.50235558 C-20.00348726 33.94403812 -20.00352129 30.38622819 -19.98901749 26.8278923 C-19.98594635 24.9090757 -20.00256849 22.99025876 -20.01989746 21.07151794 C-19.96915814 14.07655756 -19.39388679 9.33082674 -15.5 3.4375 C-10.4328369 0.33201776 -5.77668837 -0.05683683 0 0 Z " fill="#3D99E0" transform="translate(213.5,38.5625)"/>
<path d="M0 0 C3.99785638 4.09304343 4.71500756 6.90995832 4.75 12.5 C4.71811538 13.89609103 4.67972088 15.29211746 4.625 16.6875 C4.99109375 16.21441406 5.3571875 15.74132812 5.734375 15.25390625 C15.24062279 3.64270359 26.08043112 -3.07882841 41.09765625 -4.68359375 C55.69065862 -5.22651267 68.48407974 -0.96824173 79.64453125 8.37890625 C89.60821792 17.73478633 95.64767336 30.09704739 96.625 43.6875 C96.73699637 47.93301582 96.71484219 52.17519725 96.6953125 56.421875 C96.70388808 58.87630921 96.71436073 61.33073739 96.7265625 63.78515625 C96.74331948 67.62595385 96.749817 71.46538358 96.72460938 75.30615234 C96.70370631 79.03307436 96.72680773 82.75757015 96.7578125 86.484375 C96.73172409 88.20790192 96.73172409 88.20790192 96.70510864 89.96624756 C96.64057228 95.62019951 96.64057228 95.62019951 99.08404541 100.49015808 C100.87844309 101.82365231 102.58348925 102.78523303 104.625 103.6875 C105.39263672 104.05721924 106.16027344 104.42693848 106.95117188 104.80786133 C114.57567626 107.11797495 122.22512817 107.24934815 130.125 107.375 C131.56618232 107.40714655 133.00734483 107.44019376 134.44848633 107.47412109 C138.50714177 107.56477879 142.56576028 107.62867044 146.625 107.6875 C147.58196777 107.70409668 148.53893555 107.72069336 149.52490234 107.73779297 C154.56182972 107.81892065 159.58881365 107.80254262 164.625 107.6875 C165.48689941 107.66961426 166.34879883 107.65172852 167.23681641 107.63330078 C170.03380402 107.56606314 172.82899061 107.47462087 175.625 107.375 C176.89863403 107.34140381 176.89863403 107.34140381 178.19799805 107.30712891 C188.73228176 106.85050898 196.97726287 104.07202629 204.625 96.6875 C206.81417718 94.13267867 208.76680981 91.49001635 210.625 88.6875 C211.615 87.2025 211.615 87.2025 212.625 85.6875 C212.955 87.9975 213.285 90.3075 213.625 92.6875 C212.68333984 92.79964844 212.68333984 92.79964844 211.72265625 92.9140625 C209.44611561 93.47700562 209.44611561 93.47700562 208.68359375 95.6484375 C208.47863281 96.44507813 208.27367187 97.24171875 208.0625 98.0625 C207.16868922 101.47119454 206.38942818 103.43449103 203.625 105.6875 C201.96427151 106.36882451 200.297233 107.03492127 198.625 107.6875 C198.026875 108.203125 197.42875 108.71875 196.8125 109.25 C193.54850729 111.3949095 190.49744515 111.31274724 186.625 111.6875 C185.635 112.1825 185.635 112.1825 184.625 112.6875 C184.625 112.0275 184.625 111.3675 184.625 110.6875 C183.635 111.0175 182.645 111.3475 181.625 111.6875 C178.12340791 111.7129265 174.63638355 111.66132256 171.13671875 111.56054688 C166.20362171 111.48659392 162.31411428 112.15191803 157.625 113.6875 C156.779375 113.81125 155.93375 113.935 155.0625 114.0625 C149.5041184 115.48772605 145.00870298 119.89919359 140.4921875 123.31640625 C138.28579786 124.9365794 135.98699634 126.304868 133.625 127.6875 C132.22749475 128.64339359 130.83187167 129.60204119 129.4375 130.5625 C127.8400397 131.61442239 126.2357763 132.65608357 124.625 133.6875 C123.90828125 134.14769531 123.1915625 134.60789063 122.453125 135.08203125 C114.45815957 139.64467532 105.61096435 140.48349824 96.625 141.6875 C97.285 142.3475 97.945 143.0075 98.625 143.6875 C88.33917865 143.85002991 79.11667624 139.3472067 71.6875 132.3125 C63.69853254 123.45344698 57.48601594 112.84391391 57.51147461 100.72558594 C57.51158791 98.92417145 57.51158791 98.92417145 57.51170349 97.08636475 C57.51686478 95.79458313 57.52202606 94.50280151 57.52734375 93.171875 C57.52920983 91.83237765 57.53063284 90.49287962 57.53163147 89.15338135 C57.53544165 85.63527528 57.54525909 82.11721079 57.55633545 78.59912109 C57.56658183 75.00619061 57.571136 71.41325339 57.57617188 67.8203125 C57.58688275 60.77602471 57.60394113 53.73176507 57.625 46.6875 C56.14 46.1925 56.14 46.1925 54.625 45.6875 C52.93788577 44.0415349 51.2704378 42.37512851 49.625 40.6875 C48.965 40.3575 48.305 40.0275 47.625 39.6875 C47.625 39.0275 47.625 38.3675 47.625 37.6875 C37.49181553 35.52986376 25.14250623 33.22539872 15.68359375 38.83984375 C10.93476769 42.54249215 7.57608618 46.98823075 5.625 52.6875 C5.02114146 58.00812199 4.98209164 63.2611302 5.03341484 68.61117935 C5.05902077 71.30269828 5.05397781 73.9926999 5.04151917 76.68429565 C5.02086376 82.39386733 5.04041188 88.10296003 5.0625 93.8125 C5.0836523 100.44012797 5.08812027 107.06726368 5.06199837 113.69488144 C5.05865055 116.33796909 5.07980849 118.98010255 5.10240173 121.62307739 C5.09988949 123.25148727 5.09632848 124.87989597 5.09155273 126.50830078 C5.10443832 127.235755 5.11732391 127.96320923 5.13059998 128.71270752 C5.07696237 134.21985143 3.70240166 137.27525725 0.625 141.6875 C-4.77581815 144.96011471 -9.80367323 145.17800243 -15.9375 145.125 C-16.76185547 145.14498047 -17.58621094 145.16496094 -18.43554688 145.18554688 C-23.8664497 145.18120563 -27.19365792 144.4664272 -31.375 140.6875 C-35.22122137 135.02745854 -34.86609979 129.27224699 -34.921875 122.67578125 C-34.94278702 121.46652985 -34.96369904 120.25727844 -34.98524475 119.01138306 C-35.03754552 115.69859911 -35.07582864 112.38630723 -35.10547256 109.07328415 C-35.12502241 106.99762091 -35.14925075 104.92206234 -35.17489624 102.84646606 C-35.44219879 80.84832205 -35.43367105 58.84885197 -35.207901 36.85042953 C-35.18752789 34.62804226 -35.17398417 32.40570632 -35.16223145 30.18325806 C-35.13875485 26.02660075 -35.08128615 21.87110978 -35.01953125 17.71484375 C-35.01510513 16.48013336 -35.01067902 15.24542297 -35.00611877 13.97329712 C-34.87887883 7.63616013 -34.73814408 3.46070049 -30.375 -1.3125 C-22.68531223 -6.88089459 -7.45419077 -5.75347735 0 0 Z " fill="#18479E" transform="translate(85.375,102.3125)"/>
<path d="M0 0 C0.72058594 -0.01998047 1.44117188 -0.03996094 2.18359375 -0.06054688 C7.7184818 -0.05554246 11.0006133 1.17989948 15.5 4.4375 C18.17989444 8.10036863 18.88450212 10.71222055 18.94824219 15.21826172 C18.97126404 16.35649384 18.99428589 17.49472595 19.01800537 18.66744995 C19.02753235 19.88836334 19.03705933 21.10927673 19.046875 22.3671875 C19.07735931 24.26272873 19.07735931 24.26272873 19.10845947 26.19656372 C19.14864804 28.86803158 19.18341035 31.538867 19.20849609 34.21044922 C19.24068171 37.61887564 19.29032385 41.02674996 19.34641647 44.43485832 C19.39914279 47.70388063 19.44176456 50.97301989 19.484375 54.2421875 C19.5019989 55.45905243 19.5196228 56.67591736 19.53778076 57.92965698 C19.55340057 59.64646164 19.55340057 59.64646164 19.56933594 61.39794922 C19.58027283 62.39768768 19.59120972 63.39742615 19.60247803 64.42745972 C19.5 67.4375 19.5 67.4375 19.00453186 70.83522034 C18.47158208 74.64039953 18.36830734 78.27201654 18.3581543 82.11352539 C18.35467987 82.84618118 18.35120544 83.57883698 18.34762573 84.33369446 C18.3403186 85.91215839 18.33494662 87.49063225 18.33133507 89.06910896 C18.32411598 91.57076799 18.30841214 94.07223691 18.28999329 96.57383728 C18.23775895 103.68209333 18.18952226 110.79023747 18.17407227 117.89868164 C18.16398043 122.25767427 18.1346373 126.61617543 18.09275246 130.97497368 C18.08046657 132.63067341 18.07531679 134.28644255 18.07755089 135.94218636 C18.07990928 138.25894723 18.05770308 140.5742991 18.0300293 142.89086914 C18.02416306 144.20656387 18.01829681 145.52225861 18.01225281 146.87782288 C17.41250875 151.04548222 16.136601 153.19025049 13.5 156.4375 C9.06637078 159.39325282 4.90598307 158.84464037 -0.3125 158.875 C-1.29798828 158.90787109 -2.28347656 158.94074219 -3.29882812 158.97460938 C-11.44695605 159.03480374 -11.44695605 159.03480374 -15.07421875 156.22265625 C-18.83778846 151.90152066 -19.74834345 148.35544613 -19.76742554 142.68901062 C-19.78022049 140.9669339 -19.78022049 140.9669339 -19.79327393 139.21006775 C-19.79236755 137.95956131 -19.79146118 136.70905487 -19.79052734 135.4206543 C-19.79651534 134.08315659 -19.80332151 132.74566234 -19.81088257 131.40817261 C-19.82852356 127.78199557 -19.83323717 124.15591298 -19.83451414 120.52969718 C-19.83593752 118.26168386 -19.84021069 115.99369441 -19.84550858 113.72568703 C-19.86400345 105.8061229 -19.87217998 97.88662602 -19.87060547 89.96704102 C-19.86940462 82.59669037 -19.89049709 75.22663283 -19.9220928 67.85635632 C-19.94828765 61.51901398 -19.95897141 55.18176717 -19.95769465 48.84437114 C-19.9571859 45.0635944 -19.9628203 41.28307816 -19.98405075 37.50235558 C-20.00348726 33.94403812 -20.00352129 30.38622819 -19.98901749 26.8278923 C-19.98594635 24.9090757 -20.00256849 22.99025876 -20.01989746 21.07151794 C-19.96915814 14.07655756 -19.39388679 9.33082674 -15.5 3.4375 C-10.4328369 0.33201776 -5.77668837 -0.05683683 0 0 Z " fill="#4FAFEC" transform="translate(213.5,38.5625)"/>
<path d="M0 0 C6.84681442 2.15901291 10.81071532 8.02014143 14.1796875 14.14453125 C15.20291153 16.45896656 16 18.44763434 16 21 C16.66 21 17.32 21 18 21 C20.43160605 24.36683915 21 25.73350364 21 30 C21.99 30.33 22.98 30.66 24 31 C25.3540932 32.98600337 26.68457624 34.98817543 28 37 C29.62553283 38.70680947 31.29115995 40.37660195 33 42 C33.928125 43.051875 33.928125 43.051875 34.875 44.125 C37.67081086 46.59189193 40.53471539 47.64912634 44 49 C45.23072362 49.53811974 46.45993685 50.07970907 47.6875 50.625 C52.55548315 52.64567225 56.47091635 53.15558677 61.7578125 53.31640625 C62.74165672 53.34771385 62.74165672 53.34771385 63.74537659 53.37965393 C65.87180242 53.44560359 67.99834085 53.50459643 70.125 53.5625 C70.85063141 53.58334656 71.57626282 53.60419312 72.32388306 53.62567139 C83.21626425 53.93810032 94.10358859 54.24890893 105 54 C105.86189941 53.98211426 106.72379883 53.96422852 107.61181641 53.94580078 C110.40880402 53.87856314 113.20399061 53.78712087 116 53.6875 C116.84908936 53.66510254 117.69817871 53.64270508 118.57299805 53.61962891 C129.10728176 53.16300898 137.35226287 50.38452629 145 43 C147.18917718 40.44517867 149.14180981 37.80251635 151 35 C151.66 34.01 152.32 33.02 153 32 C153.33 34.31 153.66 36.62 154 39 C153.37222656 39.07476562 152.74445313 39.14953125 152.09765625 39.2265625 C149.82111561 39.78950562 149.82111561 39.78950562 149.05859375 41.9609375 C148.75115234 43.15589844 148.75115234 43.15589844 148.4375 44.375 C147.54368922 47.78369454 146.76442818 49.74699103 144 52 C142.33927151 52.68132451 140.672233 53.34742127 139 54 C138.401875 54.515625 137.80375 55.03125 137.1875 55.5625 C133.92350729 57.7074095 130.87244515 57.62524724 127 58 C126.01 58.495 126.01 58.495 125 59 C125 58.34 125 57.68 125 57 C123.515 57.495 123.515 57.495 122 58 C118.49840791 58.0254265 115.01138355 57.97382256 111.51171875 57.87304688 C106.57862171 57.79909392 102.68911428 58.46441803 98 60 C97.154375 60.12375 96.30875 60.2475 95.4375 60.375 C89.8791184 61.80022605 85.38370298 66.21169359 80.8671875 69.62890625 C78.66079786 71.2490794 76.36199634 72.617368 74 74 C72.60249475 74.95589359 71.20687167 75.91454119 69.8125 76.875 C68.2150397 77.92692239 66.6107763 78.96858357 65 80 C64.28328125 80.46019531 63.5665625 80.92039062 62.828125 81.39453125 C54.83315957 85.95717532 45.98596435 86.79599824 37 88 C37.99 88.99 37.99 88.99 39 90 C28.71417865 90.16252991 19.49167624 85.6597067 12.0625 78.625 C4.58609457 70.33433259 -2.09145726 59.75847745 -2.14526367 48.31079102 C-2.15164352 47.38625626 -2.15802338 46.4617215 -2.16459656 45.50917053 C-2.16570938 44.51743332 -2.1668222 43.52569611 -2.16796875 42.50390625 C-2.17129715 41.4782103 -2.17462555 40.45251434 -2.17805481 39.39573669 C-2.1831141 37.22794035 -2.18546344 35.06013623 -2.18530273 32.89233398 C-2.18748945 29.57848272 -2.20565654 26.26496427 -2.22460938 22.95117188 C-2.22754346 20.84375114 -2.22952815 18.73632882 -2.23046875 16.62890625 C-2.23765427 15.63919327 -2.24483978 14.64948029 -2.25224304 13.629776 C-2.23679407 8.97149298 -2.19687638 5.23104133 0 1 C0 0.67 0 0.34 0 0 Z " fill="#2261AB" transform="translate(145,156)"/>
<path d="M0 0 C0.928125 0.02255859 1.85625 0.04511719 2.8125 0.06835938 C3.76382813 0.12701172 4.71515625 0.18566406 5.6953125 0.24609375 C7.15710938 0.2934668 7.15710938 0.2934668 8.6484375 0.34179688 C11.04220227 0.42393586 13.42966418 0.53867702 15.8203125 0.68359375 C16.1503125 2.00359375 16.4803125 3.32359375 16.8203125 4.68359375 C17.8103125 4.68359375 18.8003125 4.68359375 19.8203125 4.68359375 C20.1503125 6.00359375 20.4803125 7.32359375 20.8203125 8.68359375 C21.8103125 8.35359375 22.8003125 8.02359375 23.8203125 7.68359375 C25.48237648 12.6697857 25.50015376 16.98399061 23.5703125 21.80859375 C19.96644822 27.72922792 16.09246592 32.75210553 11.3203125 37.74609375 C7.645066 41.61718672 4.14691387 45.50419839 0.8203125 49.68359375 C0.13453125 50.2971875 -0.55125 50.91078125 -1.2578125 51.54296875 C-3.77823163 54.35026486 -4.79051475 57.40860636 -5.9296875 60.93359375 C-6.15011719 61.58328125 -6.37054688 62.23296875 -6.59765625 62.90234375 C-7.13552748 64.49257173 -7.65907928 66.08763085 -8.1796875 67.68359375 C-8.8396875 67.68359375 -9.4996875 67.68359375 -10.1796875 67.68359375 C-11.1226695 64.47429918 -11.3334793 61.53922304 -11.38842773 58.19995117 C-11.40771835 57.10168503 -11.42700897 56.00341888 -11.44688416 54.87187195 C-11.50477612 49.8614753 -11.55387728 44.85121808 -11.5847168 39.84057617 C-11.60632108 37.19949284 -11.64045185 34.55848156 -11.68725586 31.91772461 C-11.75421073 28.10367967 -11.78170827 24.29111201 -11.80078125 20.4765625 C-11.82861191 19.30030807 -11.85644257 18.12405365 -11.88511658 16.91215515 C-11.8718717 11.62413024 -11.81611277 7.69064005 -8.46459961 3.42675781 C-5.75413811 0.81676459 -3.85270927 -0.16647509 0 0 Z " fill="#2D78CC" transform="translate(64.1796875,100.31640625)"/>
<path d="M0 0 C0 0.33 0 0.66 0 1 C-1.98 1.33 -3.96 1.66 -6 2 C-6.495 1.01 -6.495 1.01 -7 0 C-9.00757483 -1.09457049 -9.00757483 -1.09457049 -11.375 -2.0625 C-12.16648437 -2.40410156 -12.95796875 -2.74570313 -13.7734375 -3.09765625 C-17.51522183 -4.61406358 -20.52605484 -5.16763166 -24.54296875 -5.31640625 C-25.61611328 -5.35830078 -26.68925781 -5.40019531 -27.79492188 -5.44335938 C-28.91447266 -5.48267578 -30.03402344 -5.52199219 -31.1875 -5.5625 C-32.31865234 -5.60568359 -33.44980469 -5.64886719 -34.61523438 -5.69335938 C-37.41003354 -5.79949099 -40.20492162 -5.90154385 -43 -6 C-43 -5.34 -43 -4.68 -43 -4 C-45.64 -3.67 -48.28 -3.34 -51 -3 C-52.89935146 4.05473398 -53.11639044 10.73206335 -53 18 C-52.34 18 -51.68 18 -51 18 C-50.93941406 18.61488281 -50.87882812 19.22976562 -50.81640625 19.86328125 C-50.69072266 21.07564453 -50.69072266 21.07564453 -50.5625 22.3125 C-50.48128906 23.11300781 -50.40007812 23.91351563 -50.31640625 24.73828125 C-50.04734307 27.16087179 -50.04734307 27.16087179 -49 30 C-45.535 29.505 -45.535 29.505 -42 29 C-44.91380645 30.52756135 -47.84652909 31.69327325 -50.9375 32.8125 C-57.69811799 35.50284871 -61.35709777 39.75502475 -65 46 C-66.07574049 50.07445061 -66.19540491 54.06905617 -66.31640625 58.26953125 C-66.33718735 58.95053391 -66.35796844 59.63153656 -66.37937927 60.33317566 C-66.44437878 62.49285508 -66.50352712 64.65264846 -66.5625 66.8125 C-66.6057325 68.28321456 -66.64934825 69.75391791 -66.69335938 71.22460938 C-66.80000859 74.81628717 -66.90141349 78.40809082 -67 82 C-67.33 82 -67.66 82 -68 82 C-68.02318141 72.43795582 -68.04094468 62.87592133 -68.05181217 53.31385517 C-68.0570283 48.87369608 -68.0641029 44.43355622 -68.07543945 39.9934082 C-68.08631344 35.70755512 -68.09228642 31.42172054 -68.09487724 27.13585472 C-68.09672335 25.50161638 -68.10032832 23.86737903 -68.10573006 22.23314857 C-68.11300034 19.94227545 -68.11398841 17.65147853 -68.11352539 15.3605957 C-68.115746 14.05709671 -68.11796661 12.75359772 -68.12025452 11.41059875 C-68.01547931 8.4390164 -67.82090199 5.85262786 -67 3 C-48.87468867 -13.63792891 -20.20156335 -10.66367353 0 0 Z " fill="#326A97" transform="translate(299,105)"/>
<path d="M0 0 C2.12459667 3.92100361 2.6760189 7.5953998 3 12 C3.05414063 12.68449219 3.10828125 13.36898437 3.1640625 14.07421875 C3.88581442 32.87257561 -1.3417994 51.86925704 -14 66 C-14.56589844 66.69480469 -15.13179687 67.38960938 -15.71484375 68.10546875 C-26.7494504 81.4420795 -42.94644708 89.80914912 -60 92 C-65.51868307 92.37076238 -71.0334039 92.51181589 -76.5625 92.625 C-78.12720387 92.66232167 -79.6919011 92.69992304 -81.2565918 92.73779297 C-104.54015321 93.27563608 -127.73372055 92.91221283 -151 92 C-151 91.67 -151 91.34 -151 91 C-150.31619263 90.99191315 -149.63238525 90.98382629 -148.92785645 90.97549438 C-141.78961065 90.8892175 -134.65163517 90.78970419 -127.51367188 90.68261719 C-124.85222447 90.64335922 -122.19086667 90.6095454 -119.52929688 90.578125 C-115.69643269 90.53229105 -111.8639112 90.47432585 -108.03125 90.4140625 C-106.84760864 90.40251129 -105.66396729 90.39096008 -104.44445801 90.37905884 C-98.25209713 90.26925613 -92.95557221 89.64435446 -87 88 C-83.93969727 87.8046875 -83.93969727 87.8046875 -81.06640625 87.875 C-79.4740918 87.89820313 -79.4740918 87.89820313 -77.84960938 87.921875 C-75.66210717 87.97386555 -73.47460716 88.02594855 -71.28710938 88.078125 C-64.86049791 88.17165967 -59.19196038 87.72474883 -53 86 C-52.05769531 85.77699219 -51.11539063 85.55398437 -50.14453125 85.32421875 C-44.49049216 83.78048613 -41.35111242 81.86765549 -37 78 C-34.70867686 76.81800667 -32.41337829 75.92822242 -30 75 C-27.2160817 73.60804085 -27.02101003 71.84424221 -26 69 C-24.68 69 -23.36 69 -22 69 C-22 66.69 -22 64.38 -22 62 C-20.88625 61.79375 -19.7725 61.5875 -18.625 61.375 C-17.42875 60.92125 -16.2325 60.4675 -15 60 C-13.76242123 57.03739474 -13.76242123 57.03739474 -13 54 C-12.35933594 53.73445313 -11.71867188 53.46890625 -11.05859375 53.1953125 C-8.70446642 52.12018 -8.70446642 52.12018 -7.953125 49.1796875 C-7.60507812 47.54386719 -7.60507812 47.54386719 -7.25 45.875 C-6.88648438 44.23144531 -6.88648438 44.23144531 -6.515625 42.5546875 C-6.34546875 41.71164063 -6.1753125 40.86859375 -6 40 C-5.34 40 -4.68 40 -4 40 C-4.020625 38.88625 -4.04125 37.7725 -4.0625 36.625 C-4 33 -4 33 -3 31 C-2.69208131 28.66922657 -2.49104726 26.33758104 -2.28125 23.99609375 C-2 22 -2 22 -1 21 C-0.84313751 19.44051458 -0.74923361 17.87457332 -0.68359375 16.30859375 C-0.64169922 15.36435547 -0.59980469 14.42011719 -0.55664062 13.44726562 C-0.51732422 12.45404297 -0.47800781 11.46082031 -0.4375 10.4375 C-0.37272461 8.94186523 -0.37272461 8.94186523 -0.30664062 7.41601562 C-0.20019702 4.9441585 -0.09818072 2.4721969 0 0 Z " fill="#3D7CB8" transform="translate(335,155)"/>
<path d="M0 0 C0.33 0 0.66 0 1 0 C1.12451222 3.97878596 1.24779974 7.95760835 1.37011719 11.9364624 C1.41500417 13.39435424 1.4600885 14.85224002 1.50537109 16.31011963 C1.78670569 25.38839803 2.04145669 34.46670867 2.25390625 43.546875 C2.29561421 45.28629653 2.33736189 47.02571712 2.37915039 48.76513672 C2.44027204 51.31442762 2.49975891 53.86370346 2.5541687 56.41314697 C2.60501525 58.7937723 2.66137933 61.17421181 2.71875 63.5546875 C2.73229019 64.26574646 2.74583038 64.97680542 2.75978088 65.70941162 C2.83698485 68.72878981 3.03752725 71.11258175 4 74 C3.979375 75.2375 3.95875 76.475 3.9375 77.75 C3.92235768 81.86113887 4.28317817 85.19313421 6 89 C11.11983032 91.77729706 15.35706197 92.49746911 21.125 92.4375 C21.81464844 92.45748047 22.50429687 92.47746094 23.21484375 92.49804688 C28.15410757 92.49332483 30.4280917 91.30368808 34 88 C34.66 88 35.32 88 36 88 C35.98428955 86.13927856 35.98428955 86.13927856 35.96826172 84.2409668 C35.76712629 58.0790617 36.05794767 32.09632825 38 6 C38.33 6 38.66 6 39 6 C39.09281456 16.17934712 39.16382312 26.35859301 39.20724869 36.53827763 C39.22809431 41.2654983 39.2563565 45.99242875 39.30175781 50.71948242 C39.34532374 55.28417742 39.36915985 59.84859384 39.37950897 64.41348076 C39.38688109 66.15216899 39.40127722 67.89084254 39.42292023 69.6294117 C39.45209784 72.07106201 39.45595013 74.51157163 39.45410156 76.95336914 C39.47567322 78.02368126 39.47567322 78.02368126 39.49768066 79.11561584 C39.45310648 84.58207587 38.04941006 87.61780868 35 92 C29.59918185 95.27261471 24.57132677 95.49050243 18.4375 95.4375 C17.61314453 95.45748047 16.78878906 95.47746094 15.93945312 95.49804688 C10.5085503 95.49370563 7.18134208 94.7789272 3 91 C0.53395732 86.82862393 -0.38269816 83.71033981 -0.44824219 78.88476562 C-0.47126404 77.69492065 -0.49428589 76.50507568 -0.51800537 75.2791748 C-0.52753235 74.00110962 -0.53705933 72.72304443 -0.546875 71.40625 C-0.56632308 70.05503773 -0.58687286 68.70384093 -0.60845947 67.35266113 C-0.65076889 64.51492263 -0.68341116 61.67729761 -0.70849609 58.83935547 C-0.74025889 55.27140125 -0.78998791 51.70400968 -0.84629059 48.1363678 C-1.09583184 32.06007384 -0.99544203 16.05524099 0 0 Z " fill="#0F2953" transform="translate(51,152)"/>
<path d="M0 0 C0.66 0.33 1.32 0.66 2 1 C1.07198474 3.85033258 0.15437256 6.64969312 -1.05513 9.39433289 C-2.04621121 12.1274366 -2.24776936 14.10936245 -2.24291992 17.00317383 C-2.24595123 17.98525314 -2.24898254 18.96733246 -2.25210571 19.97917175 C-2.24496552 21.04436539 -2.23782532 22.10955902 -2.23046875 23.20703125 C-2.2304184 24.33647659 -2.23036804 25.46592194 -2.23031616 26.6295929 C-2.22667756 30.35733611 -2.20767192 34.08481217 -2.1875 37.8125 C-2.17994315 40.40152905 -2.1727044 42.99055905 -2.16577148 45.57958984 C-2.09937785 64.09636903 -1.87532692 82.61077549 -1.5625 101.125 C-1.54303314 102.3279068 -1.52356628 103.5308136 -1.50350952 104.77017212 C-1.44644363 108.18284128 -1.38278193 111.59531303 -1.31640625 115.0078125 C-1.29967865 116.00742508 -1.28295105 117.00703766 -1.26571655 118.03694153 C-1.15067112 123.43666507 -0.72697794 128.64976499 0 134 C0.07525947 136.34148753 0.04882116 138.65658416 0 141 C0.66 141.33 1.32 141.66 2 142 C1.896875 142.928125 1.79375 143.85625 1.6875 144.8125 C1.6390814 148.07993462 1.6390814 148.07993462 3.95703125 149.69921875 C8.11680922 151.47740368 11.54385722 151.28212592 16 151 C16.7940625 150.98066406 17.588125 150.96132812 18.40625 150.94140625 C22.78300446 150.70068475 24.490876 150.45378444 27.875 147.4375 C28.926875 146.2309375 28.926875 146.2309375 30 145 C30.99 145 31.98 145 33 145 C32.17367708 148.30529167 31.36108221 150.58765303 29.1015625 153.16796875 C24.49888033 155.88668152 20.31283548 155.62118225 15.0625 155.5625 C14.08603516 155.58634766 13.10957031 155.61019531 12.10351562 155.63476562 C7.61584961 155.62563817 4.07492974 155.59647823 0.43359375 152.77734375 C-3.34434723 148.46576103 -4.24834138 144.91856219 -4.26742554 139.25151062 C-4.28022049 137.5294339 -4.28022049 137.5294339 -4.29327393 135.77256775 C-4.29236755 134.52206131 -4.29146118 133.27155487 -4.29052734 131.9831543 C-4.29651534 130.64565659 -4.30332151 129.30816234 -4.31088257 127.97067261 C-4.32852356 124.34449557 -4.33323717 120.71841298 -4.33451414 117.09219718 C-4.33593752 114.82418386 -4.34021069 112.55619441 -4.34550858 110.28818703 C-4.36400345 102.3686229 -4.37217998 94.44912602 -4.37060547 86.52954102 C-4.36940462 79.15919037 -4.39049709 71.78913283 -4.4220928 64.41885632 C-4.44828765 58.08151398 -4.45897141 51.74426717 -4.45769465 45.40687114 C-4.4571859 41.6260944 -4.4628203 37.84557816 -4.48405075 34.06485558 C-4.50348726 30.50653812 -4.50352129 26.94872819 -4.48901749 23.3903923 C-4.48594635 21.4715757 -4.50256849 19.55275876 -4.51989746 17.63401794 C-4.46896086 10.61186029 -3.7340431 5.99488612 0 0 Z " fill="#5596C8" transform="translate(198,42)"/>
<path d="M0 0 C9.54493701 7.41688548 9.54493701 7.41688548 10.3203125 13.2890625 C10.3409375 14.4646875 10.3615625 15.6403125 10.3828125 16.8515625 C9.7640625 16.0265625 9.1453125 15.2015625 8.5078125 14.3515625 C7.8065625 13.5265625 7.1053125 12.7015625 6.3828125 11.8515625 C5.7228125 11.8515625 5.0628125 11.8515625 4.3828125 11.8515625 C4.3828125 10.5315625 4.3828125 9.2115625 4.3828125 7.8515625 C3.0628125 7.8515625 1.7428125 7.8515625 0.3828125 7.8515625 C-0.6071875 6.3665625 -0.6071875 6.3665625 -1.6171875 4.8515625 C-2.6071875 4.5215625 -3.5971875 4.1915625 -4.6171875 3.8515625 C-5.1121875 2.8615625 -5.1121875 2.8615625 -5.6171875 1.8515625 C-7.55189455 0.53251514 -7.55189455 0.53251514 -9.8671875 -0.7109375 C-10.63546875 -1.14535156 -11.40375 -1.57976562 -12.1953125 -2.02734375 C-14.70856612 -3.19073696 -16.87160382 -3.81214957 -19.6171875 -4.1484375 C-20.2771875 -3.8184375 -20.9371875 -3.4884375 -21.6171875 -3.1484375 C-22.6071875 -3.4784375 -23.5971875 -3.8084375 -24.6171875 -4.1484375 C-24.6171875 -4.8084375 -24.6171875 -5.4684375 -24.6171875 -6.1484375 C-27.2571875 -6.1484375 -29.8971875 -6.1484375 -32.6171875 -6.1484375 C-32.9471875 -5.4884375 -33.2771875 -4.8284375 -33.6171875 -4.1484375 C-33.6171875 -4.8084375 -33.6171875 -5.4684375 -33.6171875 -6.1484375 C-34.184375 -5.8390625 -34.7515625 -5.5296875 -35.3359375 -5.2109375 C-38.29432505 -3.83305837 -41.20930837 -3.3225513 -44.3984375 -2.7109375 C-46.7151735 -2.12359598 -48.56585371 -1.37204011 -50.6171875 -0.1484375 C-50.9471875 0.5115625 -51.2771875 1.1715625 -51.6171875 1.8515625 C-52.9353541 2.54773707 -54.27163675 3.20991197 -55.6171875 3.8515625 C-59.85624977 6.50697509 -63.04984049 8.57503173 -65.1171875 13.2265625 C-65.2821875 14.0928125 -65.4471875 14.9590625 -65.6171875 15.8515625 C-66.6071875 15.8515625 -67.5971875 15.8515625 -68.6171875 15.8515625 C-71.12801864 17.10697807 -71.48844196 18.35219738 -72.6171875 20.8515625 C-73.9371875 20.8515625 -75.2571875 20.8515625 -76.6171875 20.8515625 C-76.3284375 20.2946875 -76.0396875 19.7378125 -75.7421875 19.1640625 C-74.5758622 16.76661605 -73.5831994 14.33559311 -72.6171875 11.8515625 C-71.9571875 11.8515625 -71.2971875 11.8515625 -70.6171875 11.8515625 C-69.61177259 10.74681019 -68.66354922 9.58983007 -67.7421875 8.4140625 C-50.37849857 -11.74213723 -22.02177002 -15.44810733 0 0 Z " fill="#315598" transform="translate(160.6171875,107.1484375)"/>
<path d="M0 0 C0.33 0.66 0.66 1.32 1 2 C0.52820313 2.67804688 0.05640625 3.35609375 -0.4296875 4.0546875 C-2.61018408 8.14447462 -2.2929734 11.57511193 -2.125 16.125 C-2.08157679 17.7316589 -2.04234039 19.33843783 -2.0078125 20.9453125 C-1.98348145 21.65187988 -1.95915039 22.35844727 -1.93408203 23.08642578 C-2 25 -2 25 -3 28 C-2.34 28 -1.68 28 -1 28 C-0.67 26.02 -0.34 24.04 0 22 C0.12375 22.639375 0.2475 23.27875 0.375 23.9375 C0.58125 24.618125 0.7875 25.29875 1 26 C1.66 26.33 2.32 26.66 3 27 C2.67 28.98 2.34 30.96 2 33 C3.98 33 5.96 33 8 33 C7.278125 33.556875 6.55625 34.11375 5.8125 34.6875 C-0.22803528 39.65416234 -4.75305568 44.09992875 -6 52 C-6.14563628 54.42109498 -6.24656568 56.84506572 -6.31640625 59.26953125 C-6.33718735 59.95053391 -6.35796844 60.63153656 -6.37937927 61.33317566 C-6.44437878 63.49285508 -6.50352712 65.65264846 -6.5625 67.8125 C-6.6057325 69.28321456 -6.64934825 70.75391791 -6.69335938 72.22460938 C-6.80000859 75.81628717 -6.90141349 79.40809082 -7 83 C-7.33 83 -7.66 83 -8 83 C-8.02318141 73.43795582 -8.04094468 63.87592133 -8.05181217 54.31385517 C-8.0570283 49.87369608 -8.0641029 45.43355622 -8.07543945 40.9934082 C-8.08631344 36.70755512 -8.09228642 32.42172054 -8.09487724 28.13585472 C-8.09672335 26.50161638 -8.10032832 24.86737903 -8.10573006 23.23314857 C-8.11300034 20.94227545 -8.11398841 18.65147853 -8.11352539 16.3605957 C-8.115746 15.05709671 -8.11796661 13.75359772 -8.12025452 12.41059875 C-8.01575436 9.44681737 -7.79782471 6.85098234 -7 4 C-4.83241681 2.18588362 -2.56404485 1.25871293 0 0 Z " fill="#1F4A70" transform="translate(239,104)"/>
<path d="M0 0 C6.15234375 -0.09765625 6.15234375 -0.09765625 8 0 C10.4471455 2.4471455 9.87136855 7.76082614 10 11 C9.96754916 13.83841255 9.84471661 16.66596374 9.6875 19.5 C9.63553467 20.55973022 9.63553467 20.55973022 9.58251953 21.64086914 C9.24420979 26.75579021 9.24420979 26.75579021 7 29 C7.66 29.99 8.32 30.98 9 32 C7.02 32.66 5.04 33.32 3 34 C3 33.34 3 32.68 3 32 C2.34 31.67 1.68 31.34 1 31 C1 28.03 1 25.06 1 22 C0.34 22 -0.32 22 -1 22 C-1.22245975 19.75135275 -1.42746557 17.50097377 -1.625 15.25 C-1.74101562 13.99703125 -1.85703125 12.7440625 -1.9765625 11.453125 C-1.999471 8.07793981 -1.6224946 6.82287679 0 4 C-0.33 3.34 -0.66 2.68 -1 2 C-0.67 1.34 -0.34 0.68 0 0 Z " fill="#4897CC" transform="translate(247,101)"/>
<path d="M0 0 C8.58090984 7.10989673 10.65233755 17.41162136 12 28 C12.27467678 32.37896753 12.32335138 36.74605897 12.34375 41.1328125 C12.3583728 42.33187225 12.37299561 43.53093201 12.38806152 44.7663269 C12.44989557 49.84736982 12.49022485 54.92852218 12.53173828 60.00976562 C12.56531693 63.73841428 12.6104142 67.46679773 12.65625 71.1953125 C12.6615271 72.35040314 12.6668042 73.50549377 12.67224121 74.69558716 C12.68565552 75.75784515 12.69906982 76.82010315 12.71289062 77.91455078 C12.72018188 78.85098419 12.72747314 79.7874176 12.73498535 80.75222778 C12.78845946 83.20142457 12.78845946 83.20142457 15 85 C11.23416446 84.45254373 9.77278714 83.00868233 7.375 80.125 C6.48941406 79.07699219 6.48941406 79.07699219 5.5859375 78.0078125 C4 76 4 76 2 73 C2.33 72.01 2.66 71.02 3 70 C6 71 6 71 7.1875 73.0625 C7.455625 73.701875 7.72375 74.34125 8 75 C9.72675521 68.84672152 9.0761149 62.60038259 8.5 56.3125 C8.13430719 52.14360197 7.98469529 48.05115076 8.07421875 43.87109375 C8.26828133 34.79247877 8.29488388 26.19202454 6.1875 17.3125 C6.02209717 16.6122168 5.85669434 15.91193359 5.6862793 15.19042969 C4.73166903 11.5950158 3.73742859 9.47889367 1 7 C0.3125 3.3125 0.3125 3.3125 0 0 Z " fill="#213972" transform="translate(170,118)"/>
<path d="M0 0 C3.81944856 3.91038782 4.71233552 6.65164403 4.75 12 C4.70875 13.216875 4.6675 14.43375 4.625 15.6875 C4.295 15.6875 3.965 15.6875 3.625 15.6875 C2.965 12.7175 2.305 9.7475 1.625 6.6875 C0.965 6.6875 0.305 6.6875 -0.375 6.6875 C-0.87 4.7075 -0.87 4.7075 -1.375 2.6875 C-2.365 2.6875 -3.355 2.6875 -4.375 2.6875 C-4.705 1.3675 -5.035 0.0475 -5.375 -1.3125 C-8.81373816 -1.26070236 -12.24994908 -1.16564895 -15.6875 -1.0625 C-16.66396484 -1.04832031 -17.64042969 -1.03414063 -18.64648438 -1.01953125 C-19.58427734 -0.98730469 -20.52207031 -0.95507812 -21.48828125 -0.921875 C-22.78439331 -0.8904541 -22.78439331 -0.8904541 -24.10668945 -0.85839844 C-27.079909 -0.14285448 -27.71142861 1.21414945 -29.375 3.6875 C-30.035 3.6875 -30.695 3.6875 -31.375 3.6875 C-31.375 24.1475 -31.375 44.6075 -31.375 65.6875 C-30.715 66.0175 -30.055 66.3475 -29.375 66.6875 C-30.365 69.6575 -31.355 72.6275 -32.375 75.6875 C-32.705 75.6875 -33.035 75.6875 -33.375 75.6875 C-34.22858115 60.13461572 -34.55289165 44.56797465 -34.66210938 28.9937439 C-34.67900392 26.96016502 -34.70290293 24.926632 -34.73388672 22.89321899 C-34.77596843 19.99628924 -34.79158108 17.1003228 -34.80078125 14.203125 C-34.81824905 13.33215683 -34.83571686 12.46118866 -34.85371399 11.56382751 C-34.8344673 6.11137232 -34.00706966 3.01691684 -30.375 -1.3125 C-22.68531223 -6.88089459 -7.45419077 -5.75347735 0 0 Z " fill="#335E91" transform="translate(85.375,102.3125)"/>
<path d="M0 0 C1.98364258 -0.35644531 1.98364258 -0.35644531 4.39453125 -0.328125 C5.70454102 -0.32039063 5.70454102 -0.32039063 7.04101562 -0.3125 C8.41290039 -0.2815625 8.41290039 -0.2815625 9.8125 -0.25 C11.16698242 -0.24226563 11.16698242 -0.24226563 12.54882812 -0.234375 C21.41522111 -0.13014114 21.41522111 -0.13014114 25 1 C26.3125 3.0625 26.3125 3.0625 27 5 C24.69 5.66 22.38 6.32 20 7 C20 6.34 20 5.68 20 5 C19.34 5 18.68 5 18 5 C18 4.01 18 3.02 18 2 C17.01 2.495 17.01 2.495 16 3 C16 2.34 16 1.68 16 1 C13.36 1.33 10.72 1.66 8 2 C8 2.99 8 3.98 8 5 C6.68 5.33 5.36 5.66 4 6 C4 5.01 4 4.02 4 3 C2.35 4.32 0.7 5.64 -1 7 C-1.625 5.1875 -1.625 5.1875 -2 3 C-1.34 2.01 -0.68 1.02 0 0 Z M-2 7 C-1.34 7.66 -0.68 8.32 0 9 C-0.66 9 -1.32 9 -2 9 C-1.99476318 9.92748047 -1.98952637 10.85496094 -1.98413086 11.81054688 C-1.96698673 15.28451166 -1.95450035 18.75843082 -1.94506836 22.23242188 C-1.94007057 23.72982497 -1.9332701 25.22722327 -1.92456055 26.72460938 C-1.91229377 28.88933505 -1.90672603 31.05399565 -1.90234375 33.21875 C-1.89710693 34.51748047 -1.89187012 35.81621094 -1.88647461 37.15429688 C-2.0053392 41.18086673 -2.43973231 45.01415096 -3 49 C-2.34 49.33 -1.68 49.66 -1 50 C-1.33 51.32 -1.66 52.64 -2 54 C-2.66 54 -3.32 54 -4 54 C-4 59.61 -4 65.22 -4 71 C-4.33 71 -4.66 71 -5 71 C-5.06965856 63.5414265 -5.1228914 56.0829237 -5.15543652 48.62409019 C-5.17106042 45.16024622 -5.19223795 41.69662561 -5.22631836 38.23291016 C-5.2652946 34.24644691 -5.27973637 30.2600726 -5.29296875 26.2734375 C-5.30845261 25.03572601 -5.32393646 23.79801453 -5.33988953 22.52279663 C-5.34196413 11.89537998 -5.34196413 11.89537998 -2 7 Z " fill="#6CBAE1" transform="translate(200,41)"/>
<path d="M0 0 C0.99 0.33 1.98 0.66 3 1 C2 4 2 4 -0.25 6.0625 C-8.19868626 13.89075162 -8.87215211 23.58043742 -9.25 34.1875 C-9.32296843 35.68383824 -9.39764293 37.1800941 -9.47387695 38.67626953 C-9.91521363 47.97525676 -10.04457754 57.26577207 -10.08984375 66.57421875 C-10.10795069 68.71785865 -10.12650436 70.86149482 -10.14550781 73.00512695 C-10.18229823 77.21196657 -10.1702223 81.41507159 -10.13183594 85.62182617 C-10.14227579 87.56820588 -10.15424742 89.51457816 -10.16796875 91.4609375 C-10.14733871 92.35217819 -10.12670868 93.24341888 -10.10545349 94.16166687 C-10.19928547 100.08164088 -10.19928547 100.08164088 -12.46684265 102.68235779 C-17.03633686 106.14844744 -20.80877192 106.6472368 -26.4375 106.3125 C-27.16904297 106.28994141 -27.90058594 106.26738281 -28.65429688 106.24414062 C-30.43710355 106.18587897 -32.21883871 106.0962212 -34 106 C-34 105.67 -34 105.34 -34 105 C-32.97519531 104.97421875 -31.95039062 104.9484375 -30.89453125 104.921875 C-29.53381301 104.86556942 -28.17313757 104.80822263 -26.8125 104.75 C-26.13896484 104.73582031 -25.46542969 104.72164063 -24.77148438 104.70703125 C-19.87399873 104.46812951 -17.44250921 103.44940657 -14 100 C-13.17723787 97.30512445 -13.17723787 97.30512445 -13.1875 94.2734375 C-13.14109375 93.12069336 -13.0946875 91.96794922 -13.046875 90.78027344 C-12.9635355 84.05928969 -12.93458182 77.34593929 -13 70.625 C-13.02683816 67.8255244 -13.04666688 65.02611954 -13.0625 62.2265625 C-13.07410156 61.00533691 -13.08570312 59.78411133 -13.09765625 58.52587891 C-12.99837975 54.94150078 -12.51983187 51.54503004 -12 48 C-11.88220232 45.65647229 -11.80139883 43.31084947 -11.75390625 40.96484375 C-11.72103516 39.66095703 -11.68816406 38.35707031 -11.65429688 37.01367188 C-11.60687275 34.97099439 -11.56232477 32.92835198 -11.52319336 30.88549805 C-11.48324944 28.89093336 -11.4312055 26.89662271 -11.37890625 24.90234375 C-11.3538501 23.72148193 -11.32879395 22.54062012 -11.30297852 21.32397461 C-10.994417 17.93874901 -10.2040498 15.16774393 -9 12 C-8.34 12 -7.68 12 -7 12 C-7 10.68 -7 9.36 -7 8 C-6.01 8 -5.02 8 -4 8 C-3.896875 7.236875 -3.79375 6.47375 -3.6875 5.6875 C-2.95635961 2.82940576 -2.23048087 1.84257115 0 0 Z " fill="#113281" transform="translate(98,139)"/>
<path d="M0 0 C0.33 0 0.66 0 1 0 C1.12451222 3.97878596 1.24779974 7.95760835 1.37011719 11.9364624 C1.41500417 13.39435424 1.4600885 14.85224002 1.50537109 16.31011963 C1.78670569 25.38839803 2.04145669 34.46670867 2.25390625 43.546875 C2.29561421 45.28629653 2.33736189 47.02571712 2.37915039 48.76513672 C2.44027204 51.31442762 2.49975891 53.86370346 2.5541687 56.41314697 C2.60501525 58.7937723 2.66137933 61.17421181 2.71875 63.5546875 C2.73229019 64.26574646 2.74583038 64.97680542 2.75978088 65.70941162 C2.83698485 68.72878981 3.03752725 71.11258175 4 74 C3.979375 75.2375 3.95875 76.475 3.9375 77.75 C3.88532109 81.79013877 4.62365086 85.17680795 6 89 C6.66 89.66 7.32 90.32 8 91 C6.35 91 4.7 91 3 91 C0.63006871 86.78528204 -0.38267708 83.71189127 -0.44824219 78.88476562 C-0.47126404 77.69492065 -0.49428589 76.50507568 -0.51800537 75.2791748 C-0.52753235 74.00110962 -0.53705933 72.72304443 -0.546875 71.40625 C-0.56632308 70.05503773 -0.58687286 68.70384093 -0.60845947 67.35266113 C-0.65076889 64.51492263 -0.68341116 61.67729761 -0.70849609 58.83935547 C-0.74025889 55.27140125 -0.78998791 51.70400968 -0.84629059 48.1363678 C-1.09583184 32.06007384 -0.99544203 16.05524099 0 0 Z " fill="#14295D" transform="translate(51,152)"/>
<path d="M0 0 C5 5 5 5 6.375 6.625 C8.91399286 8.77337857 11.94491024 9.78298272 15 11 C16.23019249 11.53933283 17.45939287 12.08093534 18.6875 12.625 C23.60341359 14.6655679 27.52056524 15.14904459 32.86328125 15.28125 C33.86683907 15.30886414 33.86683907 15.30886414 34.89067078 15.33703613 C37.0311943 15.39554406 39.17180229 15.44828882 41.3125 15.5 C51.90001269 15.76293695 62.43697609 16.21138609 73 17 C68.96455274 19.24055846 65.46565863 19.26405503 60.9375 19.1875 C60.12837158 19.18032959 59.31924316 19.17315918 58.4855957 19.16577148 C50.8839523 19.07037111 43.28499542 18.82321093 35.6875 18.5625 C33.94424438 18.50388794 33.94424438 18.50388794 32.16577148 18.4440918 C31.06305908 18.40195557 29.96034668 18.35981934 28.82421875 18.31640625 C27.84541748 18.27974854 26.86661621 18.24309082 25.8581543 18.20532227 C22.85794882 17.98979542 19.95781923 17.5388562 17 17 C17 16.34 17 15.68 17 15 C15.7315625 14.9690625 15.7315625 14.9690625 14.4375 14.9375 C10.1896233 13.77898817 8.60179091 11.88502149 5.6796875 8.72265625 C3.6782388 6.6700077 1.54179655 5.30941035 -1 4 C-0.67 2.68 -0.34 1.36 0 0 Z " fill="#2B5A88" transform="translate(174,194)"/>
<path d="M0 0 C2.12459667 3.92100361 2.6760189 7.5953998 3 12 C3.05414063 12.68449219 3.10828125 13.36898437 3.1640625 14.07421875 C3.39277362 20.03110394 2.57232722 25.81285514 1.6875 31.6875 C1.56987305 32.49550049 1.45224609 33.30350098 1.33105469 34.13598633 C0.32380387 40.40296697 -0.82510235 46.02741841 -5.6875 50.4375 C-6.450625 50.953125 -7.21375 51.46875 -8 52 C-7.44687265 47.97007218 -6.8441938 43.97977076 -6 40 C-5.34 40 -4.68 40 -4 40 C-4.020625 38.88625 -4.04125 37.7725 -4.0625 36.625 C-4 33 -4 33 -3 31 C-2.69208131 28.66922657 -2.49104726 26.33758104 -2.28125 23.99609375 C-2 22 -2 22 -1 21 C-0.84313751 19.44051458 -0.74923361 17.87457332 -0.68359375 16.30859375 C-0.64169922 15.36435547 -0.59980469 14.42011719 -0.55664062 13.44726562 C-0.49766602 11.95743164 -0.49766602 11.95743164 -0.4375 10.4375 C-0.39431641 9.44041016 -0.35113281 8.44332031 -0.30664062 7.41601562 C-0.20019702 4.9441585 -0.09818072 2.4721969 0 0 Z " fill="#4B95D1" transform="translate(335,155)"/>
<path d="M0 0 C0.66 0.33 1.32 0.66 2 1 C1.07548397 3.83958495 0.16725262 6.62609067 -1.05290794 9.35387707 C-2.10254624 12.28650852 -2.26085857 14.54153687 -2.2784729 17.65046692 C-2.28963638 18.77642273 -2.30079987 19.90237854 -2.31230164 21.06245422 C-2.31446182 22.28812607 -2.31662201 23.51379791 -2.31884766 24.77661133 C-2.32889328 26.07456635 -2.3389389 27.37252136 -2.34928894 28.70980835 C-2.37655219 32.26103941 -2.39172738 35.81223088 -2.40471697 39.36353898 C-2.42036364 43.07782921 -2.44714895 46.79203879 -2.4727478 50.50627136 C-2.51950842 57.53614399 -2.55626565 64.56603183 -2.58942068 71.59598035 C-2.62766128 79.60083061 -2.67706636 87.60559982 -2.72740483 95.61038172 C-2.83068427 112.07352958 -2.91995761 128.53672242 -3 145 C-3.33 145 -3.66 145 -4 145 C-4.09353661 127.27562704 -4.16402481 109.55131834 -4.20724869 91.82675171 C-4.2278538 83.59649391 -4.25593498 75.36638968 -4.30175781 67.13623047 C-4.34168862 59.96089351 -4.36744773 52.7856678 -4.37635398 45.61022282 C-4.38155822 41.81256904 -4.39374677 38.01523345 -4.42292023 34.21768188 C-4.45018837 30.6389565 -4.45842227 27.06067861 -4.45243073 23.48185921 C-4.4540458 21.55103454 -4.47550881 19.62025797 -4.49768066 17.68955994 C-4.46438236 10.64230263 -3.75508799 6.0131626 0 0 Z " fill="#3A617C" transform="translate(198,42)"/>
<path d="M0 0 C1.42944945 2.35438733 2.08661261 3.48032433 1.625 6.25 C1.41875 6.8275 1.2125 7.405 1 8 C0.01 8 -0.98 8 -2 8 C-2.18175781 8.61488281 -2.36351562 9.22976562 -2.55078125 9.86328125 C-2.80214844 10.67152344 -3.05351562 11.47976562 -3.3125 12.3125 C-3.55613281 13.11300781 -3.79976563 13.91351563 -4.05078125 14.73828125 C-5.4747305 18.13114799 -7.05340637 19.6116539 -10.4375 21 C-11.283125 21.33 -12.12875 21.66 -13 22 C-13.598125 22.515625 -14.19625 23.03125 -14.8125 23.5625 C-18.07649271 25.7074095 -21.12755485 25.62524724 -25 26 C-25.66 26.33 -26.32 26.66 -27 27 C-27 26.34 -27 25.68 -27 25 C-27.99 25.33 -28.98 25.66 -30 26 C-31.62719482 26.08143855 -33.25751719 26.1075302 -34.88671875 26.09765625 C-35.82451172 26.09443359 -36.76230469 26.09121094 -37.72851562 26.08789062 C-38.70498047 26.07951172 -39.68144531 26.07113281 -40.6875 26.0625 C-41.67556641 26.05798828 -42.66363281 26.05347656 -43.68164062 26.04882812 C-46.12115474 26.03704303 -48.56054689 26.02059011 -51 26 C-47.46435537 23.64290358 -45.77974745 23.69990265 -41.58203125 23.5859375 C-40.32841797 23.54726562 -39.07480469 23.50859375 -37.78320312 23.46875 C-36.47287109 23.4378125 -35.16253906 23.406875 -33.8125 23.375 C-32.4771884 23.33680662 -31.14190108 23.29775409 -29.80664062 23.2578125 C-26.53790112 23.16340847 -23.26916936 23.07782983 -20 23 C-19.87326904 22.36553955 -19.74653809 21.7310791 -19.6159668 21.07739258 C-19 19 -19 19 -17.14453125 17.76171875 C-15.99017578 17.22998047 -15.99017578 17.22998047 -14.8125 16.6875 C-7.48804973 12.88576152 -3.7892324 7.14124568 0 0 Z " fill="#3D8BD0" transform="translate(297,188)"/>
<path d="M0 0 C-0.99 0.66 -1.98 1.32 -3 2 C-1.26713745 1.99214478 -1.26713745 1.99214478 0.50073242 1.98413086 C4.79646018 1.9659985 9.09218458 1.95453788 13.38793945 1.94506836 C15.24536712 1.94004697 17.10279085 1.93322859 18.96020508 1.92456055 C21.63363621 1.91239883 24.30701496 1.90674967 26.98046875 1.90234375 C27.80773972 1.89718246 28.63501068 1.89202118 29.48735046 1.88670349 C33.4622534 1.8863188 37.11956833 2.01019881 41 3 C40.67 3.66 40.34 4.32 40 5 C32.75034756 5.04633306 25.50072703 5.08187408 18.25095654 5.10362434 C14.88461771 5.1140632 11.51838015 5.12822409 8.15209961 5.15087891 C4.28236185 5.17507811 0.41276824 5.18647192 -3.45703125 5.1953125 C-4.66647903 5.20563507 -5.87592682 5.21595764 -7.12202454 5.22659302 C-8.80342781 5.22681961 -8.80342781 5.22681961 -10.51879883 5.22705078 C-11.50697098 5.231492 -12.49514313 5.23593323 -13.51325989 5.24050903 C-16 5 -16 5 -19 3 C-17.23986329 1.23986329 -14.70101226 1.33411643 -12.3125 0.9375 C-11.27738281 0.76089844 -10.24226562 0.58429688 -9.17578125 0.40234375 C-6.07778231 0.00985434 -3.11875137 -0.07013684 0 0 Z " fill="#3B83C6" transform="translate(200,241)"/>
<path d="M0 0 C0.33 0 0.66 0 1 0 C1.95678145 7.29997739 2.17932993 14.48232887 2.24609375 21.83984375 C2.27898885 24.30794683 2.31220112 26.77604571 2.34570312 29.24414062 C2.3933575 33.11105854 2.43790694 36.97795433 2.47680664 40.8449707 C2.51631885 44.59342568 2.56785985 48.34156215 2.62109375 52.08984375 C2.6295079 53.25434555 2.63792206 54.41884735 2.64659119 55.61863708 C2.66323318 56.69057816 2.67987518 57.76251923 2.69702148 58.86694336 C2.70732895 59.81242538 2.71763641 60.75790741 2.72825623 61.73204041 C2.78688852 64.19886329 2.78688852 64.19886329 5 66 C1.23416446 65.45254373 -0.22721286 64.00868233 -2.625 61.125 C-3.21539062 60.42632812 -3.80578125 59.72765625 -4.4140625 59.0078125 C-6 57 -6 57 -8 54 C-7.67 53.01 -7.34 52.02 -7 51 C-4 52 -4 52 -2.8125 54.0625 C-2.544375 54.701875 -2.27625 55.34125 -2 56 C1.3122693 44.19580249 0.12137499 30.83240996 0.0625 18.6875 C0.05747197 16.86783978 0.05291138 15.04817821 0.04882812 13.22851562 C0.03793265 8.8189763 0.02074084 4.40950355 0 0 Z " fill="#1A284E" transform="translate(180,137)"/>
<path d="M0 0 C0.33 0 0.66 0 1 0 C1.03425331 0.91295837 1.03425331 0.91295837 1.06919861 1.84436035 C1.30849007 8.20402115 1.55264159 14.56348243 1.79956055 20.92285156 C1.89096605 23.29324692 1.98115042 25.66368971 2.07006836 28.03417969 C2.1984127 31.45000326 2.33121069 34.86562973 2.46484375 38.28125 C2.50343002 39.33364868 2.5420163 40.38604736 2.58177185 41.47033691 C2.75649274 45.84397261 2.96942568 50.16196972 3.55297852 54.50195312 C4.27459407 60.1487623 3.3425704 64.84634512 1 70 C0.67 70 0.34 70 0 70 C-0.87476896 63.2368285 -1.14677994 56.63960041 -1.1328125 49.82421875 C-1.13376923 48.77780716 -1.13472595 47.73139557 -1.13571167 46.65327454 C-1.13638874 44.45057108 -1.13456763 42.24786558 -1.13037109 40.04516602 C-1.12503247 36.70779846 -1.13032392 33.37056646 -1.13671875 30.03320312 C-1.13605757 27.88020804 -1.13477558 25.72721304 -1.1328125 23.57421875 C-1.13483673 22.59257248 -1.13686096 21.61092621 -1.13894653 20.59953308 C-1.11605101 13.69155784 -0.66355773 6.87512965 0 0 Z " fill="#69BFEA" transform="translate(229,48)"/>
<path d="M0 0 C1.10794922 -0.03673828 1.10794922 -0.03673828 2.23828125 -0.07421875 C7.87601934 -0.10404805 11.17253808 1.03869069 15.75 4.375 C19.92004913 9.16876665 19.12990961 14.80468936 19.04296875 20.80078125 C19.03872391 21.90350876 19.03447906 23.00623627 19.03010559 24.14237976 C19.01333905 27.65767023 18.97568951 31.17238336 18.9375 34.6875 C18.92245059 37.07355942 18.90876264 39.45962784 18.89648438 41.84570312 C18.86344212 47.68899842 18.81326236 53.53195796 18.75 59.375 C18.42 59.375 18.09 59.375 17.75 59.375 C17.09269989 42.699506 16.58584081 26.06451793 16.75 9.375 C15.76 9.375 14.77 9.375 13.75 9.375 C13.09 7.395 12.43 5.415 11.75 3.375 C0.365 2.88 0.365 2.88 -11.25 2.375 C-7.46768056 -0.14654629 -4.38424194 0.00749443 0 0 Z " fill="#4C8098" transform="translate(213.25,38.625)"/>
<path d="M0 0 C0 0.66 0 1.32 0 2 C-30.38966152 2.99620861 -60.61383523 3.19136579 -91 2 C-91 1.67 -91 1.34 -91 1 C-60.66563812 0.39083005 -30.34150528 -0.20716364 0 0 Z " fill="#2F5E8C" transform="translate(275,245)"/>
<path d="M0 0 C0 0.66 0 1.32 0 2 C0.66 2 1.32 2 2 2 C2 2.99 2 3.98 2 5 C3.65 5 5.3 5 7 5 C7 6.65 7 8.3 7 10 C4.69 8.68 2.38 7.36 0 6 C0 5.34 0 4.68 0 4 C-9.56888486 1.96251881 -18.34383564 1.32066707 -28 3 C-27.67 1.68 -27.34 0.36 -27 -1 C-17.4939654 -4.30644682 -9.38309554 -3.35395755 0 0 Z " fill="#24447E" transform="translate(133,136)"/>
<path d="M0 0 C12.13402062 9.85889175 21.33730812 21.89782984 26 37 C26.1328125 40.359375 26.1328125 40.359375 26 43 C25.67 42.01 25.34 41.02 25 40 C24.34 40 23.68 40 23 40 C22.67 37.36 22.34 34.72 22 32 C21.34 32 20.68 32 20 32 C19.67 31.01 19.34 30.02 19 29 C18.34 28.67 17.68 28.34 17 28 C15.70871571 24.05018922 14.74302973 20.08666352 14 16 C13.34 16 12.68 16 12 16 C12 15.34 12 14.68 12 14 C11.01 14 10.02 14 9 14 C7.62437146 12.71034824 6.29233607 11.37310707 5 10 C4.01 9.34 3.02 8.68 2 8 C0.07742103 4.964349 0 3.78149076 0 0 Z " fill="#5087AB" transform="translate(309,112)"/>
<path d="M0 0 C0 0.33 0 0.66 0 1 C-1.98 1.33 -3.96 1.66 -6 2 C-6.495 1.01 -6.495 1.01 -7 0 C-9.00757483 -1.09457049 -9.00757483 -1.09457049 -11.375 -2.0625 C-12.16648437 -2.40410156 -12.95796875 -2.74570313 -13.7734375 -3.09765625 C-17.51522183 -4.61406358 -20.52605484 -5.16763166 -24.54296875 -5.31640625 C-25.61611328 -5.35830078 -26.68925781 -5.40019531 -27.79492188 -5.44335938 C-28.91447266 -5.48267578 -30.03402344 -5.52199219 -31.1875 -5.5625 C-32.31865234 -5.60568359 -33.44980469 -5.64886719 -34.61523438 -5.69335938 C-37.41003354 -5.79949099 -40.20492162 -5.90154385 -43 -6 C-43 -5.34 -43 -4.68 -43 -4 C-45.64 -3.67 -48.28 -3.34 -51 -3 C-51.12375 -2.46375 -51.2475 -1.9275 -51.375 -1.375 C-52.12206016 1.4638286 -53.05303364 4.22223202 -54 7 C-55.67382511 4.44003219 -56.00085095 3.04169676 -55.9375 -0.0625 C-55 -3 -55 -3 -52.875 -4.75 C-35.89321877 -12.13338314 -15.90898478 -8.3977768 0 0 Z " fill="#51809E" transform="translate(299,105)"/>
<path d="M0 0 C0.33 0 0.66 0 1 0 C1 5.61 1 11.22 1 17 C4.22638245 18.07546082 6.43178654 18.0353068 9.8125 17.9375 C16.06723886 17.88468556 20.48602033 19.14794155 26 22 C26.99 22.33 27.98 22.66 29 23 C29 23.66 29 24.32 29 25 C22 24 22 24 18.84375 23.5 C14.41608725 22.92404387 10.01950972 22.65657945 5.5625 22.4375 C4.32209961 22.37272461 4.32209961 22.37272461 3.05664062 22.30664062 C1.03790451 22.20161967 -0.98102951 22.10041441 -3 22 C-2.34 21.34 -1.68 20.68 -1 20 C-1.66 19.34 -2.32 18.68 -3 18 C-2.34 17.34 -1.68 16.68 -1 16 C-0.6936141 13.26565038 -0.4886664 10.61720179 -0.375 7.875 C-0.33632812 7.12089844 -0.29765625 6.36679688 -0.2578125 5.58984375 C-0.16348969 3.72696816 -0.08065338 1.86351745 0 0 Z " fill="#5D9EC5" transform="translate(256,112)"/>
<path d="M0 0 C10.65289995 1.1323039 19.40961707 6.4356659 26.76171875 14.15625 C28.90515353 17.34773649 28.9334947 20.20919817 29 24 C28.071875 22.7625 28.071875 22.7625 27.125 21.5 C26.42375 20.675 25.7225 19.85 25 19 C24.34 19 23.68 19 23 19 C23 17.68 23 16.36 23 15 C21.68 15 20.36 15 19 15 C18.34 14.01 17.68 13.02 17 12 C16.01 11.67 15.02 11.34 14 11 C13.67 10.34 13.34 9.68 13 9 C11.38004108 7.95499149 11.38004108 7.95499149 9.5 7 C6.11111111 5.22222222 6.11111111 5.22222222 5 3 C3.35636866 2.27840576 1.68949614 1.60648579 0 1 C0 0.67 0 0.34 0 0 Z " fill="#2A5297" transform="translate(142,100)"/>
<path d="M0 0 C1.4540625 0.0309375 1.4540625 0.0309375 2.9375 0.0625 C0.54009178 2.78538417 -1.89847645 4.13041522 -5.1875 5.625 C-6.07695312 6.03878906 -6.96640625 6.45257813 -7.8828125 6.87890625 C-17.84840109 10.58845581 -27.19407932 10.12396732 -37.625 9.6875 C-39.22196694 9.62915147 -40.81897254 9.57185085 -42.41601562 9.515625 C-46.2987284 9.37666914 -50.180642 9.22351485 -54.0625 9.0625 C-52.0625 7.0625 -52.0625 7.0625 -49.66748047 6.8671875 C-48.68150879 6.89039063 -47.69553711 6.91359375 -46.6796875 6.9375 C-45.59429687 6.95296875 -44.50890625 6.9684375 -43.390625 6.984375 C-41.11196711 7.03592835 -38.8333209 7.08800067 -36.5546875 7.140625 C-30.28439419 7.22935557 -25.0771696 6.81047034 -19.0625 5.0625 C-17.33 5.124375 -17.33 5.124375 -15.5625 5.1875 C-9.4936709 4.9707561 -5.52973471 0.11285173 0 0 Z " fill="#3172B0" transform="translate(300.0625,235.9375)"/>
<path d="M0 0 C-0.433125 0.804375 -0.433125 0.804375 -0.875 1.625 C-2.16711808 4.35280484 -3.08558592 7.12612718 -4 10 C-4.99 10 -5.98 10 -7 10 C-6.67 11.32 -6.34 12.64 -6 14 C-10.22393887 18.11563274 -13.18649265 19.5154987 -18.9609375 20.5390625 C-21.53312052 21.12051383 -23.01556643 22.29905694 -25 24 C-28.79763266 25.89881633 -31.77382501 26.19656628 -36 26 C-33.55329037 24.72771099 -31.12907954 23.65163182 -28.5625 22.625 C-25.02412308 21.18623328 -25.02412308 21.18623328 -22.5 19 C-19.45581191 16.56464953 -16.61885473 15.43388583 -13 14 C-10.2160817 12.60804085 -10.02101003 10.84424221 -9 8 C-7.68 8 -6.36 8 -5 8 C-5 5.69 -5 3.38 -5 1 C-3 0 -3 0 0 0 Z " fill="#337DC5" transform="translate(318,216)"/>
<path d="M0 0 C3.79151583 -0.08829061 7.58276165 -0.14081946 11.375 -0.1875 C12.96634766 -0.22520508 12.96634766 -0.22520508 14.58984375 -0.26367188 C21.2845163 -0.32527929 27.92141739 -0.10487179 34 3 C35.77490234 5.10864258 35.77490234 5.10864258 37 7 C35.35 7 33.7 7 32 7 C32 6.34 32 5.68 32 5 C31.154375 5.020625 30.30875 5.04125 29.4375 5.0625 C25.88107223 4.99783768 22.50906497 4.5614504 19 4 C19 3.34 19 2.68 19 2 C18.12988281 2.10828125 18.12988281 2.10828125 17.2421875 2.21875 C12.79912426 2.7466387 8.48368422 3.11496626 4 3 C3.34 5.64 2.68 8.28 2 11 C1.34 11 0.68 11 0 11 C-0.19491452 9.54263913 -0.38069358 8.08405407 -0.5625 6.625 C-0.66691406 5.81289062 -0.77132812 5.00078125 -0.87890625 4.1640625 C-1 2 -1 2 0 0 Z " fill="#66BAE8" transform="translate(256,99)"/>
<path d="M0 0 C0.99 0.33 1.98 0.66 3 1 C2 4 2 4 -0.25 6.0625 C-9.0081121 14.76059258 -8.92637034 25.57610672 -9.3125 37.125 C-9.38399763 38.76571652 -9.4575492 40.40634488 -9.53320312 42.046875 C-9.71249389 46.030629 -9.86396565 50.01454407 -10 54 C-10.33 54 -10.66 54 -11 54 C-12.24826019 47.63332793 -11.98578026 41.51611401 -11.75805664 35.05957031 C-11.68770669 33.00603343 -11.63336926 30.95247936 -11.58007812 28.8984375 C-11.53689453 27.59132812 -11.49371094 26.28421875 -11.44921875 24.9375 C-11.41143311 23.75027344 -11.37364746 22.56304687 -11.3347168 21.33984375 C-10.99618593 17.96194278 -10.19887444 15.16567899 -9 12 C-8.34 12 -7.68 12 -7 12 C-7 10.68 -7 9.36 -7 8 C-6.01 8 -5.02 8 -4 8 C-3.896875 7.236875 -3.79375 6.47375 -3.6875 5.6875 C-2.95635961 2.82940576 -2.23048087 1.84257115 0 0 Z " fill="#264580" transform="translate(98,139)"/>
<path d="M0 0 C0.33 0 0.66 0 1 0 C1.66 20.13 2.32 40.26 3 61 C3.66 61.33 4.32 61.66 5 62 C4.01 64.97 3.02 67.94 2 71 C1.67 71 1.34 71 1 71 C-0.29833361 47.34339479 -0.10107664 23.68303437 0 0 Z " fill="#325B98" transform="translate(51,107)"/>
<path d="M0 0 C0.33 0.66 0.66 1.32 1 2 C1.66 2.33 2.32 2.66 3 3 C3.47953125 3.66515625 3.9590625 4.3303125 4.453125 5.015625 C8.48801681 8.15937506 12.77226762 7.67709047 17.75 7.75 C18.73355469 7.77964844 19.71710938 7.80929688 20.73046875 7.83984375 C23.15372776 7.91042411 25.57603154 7.96317701 28 8 C28.18949219 7.07960937 28.18949219 7.07960937 28.3828125 6.140625 C29.22495551 3.21977454 30.6795119 1.9109902 33 0 C33.99 0 34.98 0 36 0 C35.17367708 3.30529167 34.36108221 5.58765303 32.1015625 8.16796875 C27.49888033 10.88668152 23.31283548 10.62118225 18.0625 10.5625 C17.08603516 10.58634766 16.10957031 10.61019531 15.10351562 10.63476562 C10.5096665 10.6254222 7.05016564 10.57596908 3.36328125 7.640625 C0.94452557 4.93801534 0.20424705 3.57432339 0 0 Z " fill="#3D678E" transform="translate(195,187)"/>
<path d="M0 0 C1.32 0.33 2.64 0.66 4 1 C4 2.32 4 3.64 4 5 C4.99 5.33 5.98 5.66 7 6 C8.125 8.4375 8.125 8.4375 9 11 C9.33 11.66 9.66 12.32 10 13 C11.51736058 22.06669779 13.01311257 33.54549801 9 42 C8.34 42 7.68 42 7 42 C7.15855469 41.17757812 7.31710937 40.35515625 7.48046875 39.5078125 C9.60902058 25.13608663 7.88641322 12.39293506 0 0 Z " fill="#3F6991" transform="translate(291,145)"/>
<path d="M0 0 C0.33 0 0.66 0 1 0 C1 3.63 1 7.26 1 11 C1.66 11 2.32 11 3 11 C3.06058594 11.61488281 3.12117187 12.22976562 3.18359375 12.86328125 C3.26738281 13.67152344 3.35117188 14.47976562 3.4375 15.3125 C3.51871094 16.11300781 3.59992188 16.91351563 3.68359375 17.73828125 C3.95265693 20.16087179 3.95265693 20.16087179 5 23 C8.465 22.505 8.465 22.505 12 22 C8.8250906 23.9078584 6.89414789 24.1609041 3.25 23.625 C2.45078125 23.51414063 1.6515625 23.40328125 0.828125 23.2890625 C-0.07679688 23.14597656 -0.07679688 23.14597656 -1 23 C-1.02887512 19.35418313 -1.04675585 15.70839537 -1.0625 12.0625 C-1.07087891 11.02158203 -1.07925781 9.98066406 -1.08789062 8.90820312 C-1.09272461 7.42416992 -1.09272461 7.42416992 -1.09765625 5.91015625 C-1.10289307 4.99371338 -1.10812988 4.07727051 -1.11352539 3.13305664 C-1 1 -1 1 0 0 Z " fill="#3D77A3" transform="translate(245,112)"/>
<path d="M0 0 C0.99 0.495 0.99 0.495 2 1 C2.19800942 4.70784992 2.38153245 8.41628235 2.5625 12.125 C2.61857422 13.17171875 2.67464844 14.2184375 2.73242188 15.296875 C2.97221468 20.34851007 3.16052 25.03125509 2 30 C3.32 30.33 4.64 30.66 6 31 C5.360625 31.886875 4.72125 32.77375 4.0625 33.6875 C2.19170243 36.69211428 1.40576034 38.5510371 1 42 C0.67 42 0.34 42 0 42 C0 28.14 0 14.28 0 0 Z " fill="#144063" transform="translate(232,114)"/>
<path d="M0 0 C0 0.66 0 1.32 0 2 C1.98 2.66 3.96 3.32 6 4 C3.33059475 5.33470263 1.86667247 4.57333449 -1 4 C-1.66 4.33 -2.32 4.66 -3 5 C-3.99 4.67 -4.98 4.34 -6 4 C-6 3.34 -6 2.68 -6 2 C-8.64 2 -11.28 2 -14 2 C-14.33 2.66 -14.66 3.32 -15 4 C-15 3.34 -15 2.68 -15 2 C-15.5671875 2.309375 -16.134375 2.61875 -16.71875 2.9375 C-19.67713755 4.31537913 -22.59212087 4.8258862 -25.78125 5.4375 C-28.097986 6.02484152 -29.94866621 6.77639739 -32 8 C-32.33 8.66 -32.66 9.32 -33 10 C-33 8.68 -33 7.36 -33 6 C-25.73340432 -1.21624975 -9.57538331 -0.10600055 0 0 Z " fill="#2F62B4" transform="translate(142,99)"/>
<path d="M0 0 C0.99 0.33 1.98 0.66 3 1 C-0.31130769 4.67923077 -3.07121883 6.71456362 -8.10424805 7.20507812 C-10.57279785 7.30499258 -13.02951853 7.3219582 -15.5 7.3125 C-16.34175781 7.32861328 -17.18351562 7.34472656 -18.05078125 7.36132812 C-22.84258664 7.3651012 -26.11714375 7.1428857 -30 4 C-30 3.67 -30 3.34 -30 3 C-28.845 3.165 -27.69 3.33 -26.5 3.5 C-21.92368747 3.98823717 -17.34948216 4.21168943 -12.75 4.3125 C-11.72229492 4.35697266 -11.72229492 4.35697266 -10.67382812 4.40234375 C-5.70711572 4.46049063 -3.66291878 3.18881759 0 0 Z " fill="#11255A" transform="translate(85,240)"/>
<path d="M0 0 C1.75 0.125 1.75 0.125 4 1 C5.38442 2.96498322 6.71203834 4.97048465 8 7 C11.74626461 11.32502936 11.74626461 11.32502936 17 13 C17 15.31 17 17.62 17 20 C13.66666667 16.66666667 10.33333333 13.33333333 7 10 C6.01 11.485 6.01 11.485 5 13 C4.34 13.66 3.68 14.32 3 15 C3 10.71 3 6.42 3 2 C2.01 1.67 1.02 1.34 0 1 C0 0.67 0 0.34 0 0 Z " fill="#101F3C" transform="translate(140,147)"/>
<path d="M0 0 C0.33 0 0.66 0 1 0 C2.40984755 9.51647096 2.11840624 18.18726564 0.6875 27.6875 C0.56987305 28.49550049 0.45224609 29.30350098 0.33105469 30.13598633 C-0.47944724 35.17882152 -1.79651957 39.38935607 -4 44 C-4.33 44 -4.66 44 -5 44 C-5.25 38.375 -5.25 38.375 -3 35 C-2.54398739 32.49103314 -2.54398739 32.49103314 -2.375 29.8125 C-2.30023438 28.91144531 -2.22546875 28.01039063 -2.1484375 27.08203125 C-2.09945313 26.39496094 -2.05046875 25.70789063 -2 25 C-1.34 25 -0.68 25 0 25 C0 16.75 0 8.5 0 0 Z " fill="#3C6C8D" transform="translate(336,159)"/>
<path d="M0 0 C0.66 0 1.32 0 2 0 C2 12.54 2 25.08 2 38 C1.34 38 0.68 38 0 38 C-0.33 38.66 -0.66 39.32 -1 40 C-0.835 38.88625 -0.67 37.7725 -0.5 36.625 C0.06098256 31.62424115 0.1129833 26.65098319 0.125 21.625 C0.12951172 20.82787598 0.13402344 20.03075195 0.13867188 19.20947266 C0.13019548 15.88884596 0.05709904 13.17129713 -1 10 C-0.91538508 8.26675881 -0.76395645 6.53607188 -0.5625 4.8125 C-0.46066406 3.91144531 -0.35882813 3.01039063 -0.25390625 2.08203125 C-0.17011719 1.39496094 -0.08632812 0.70789063 0 0 Z " fill="#4897D7" transform="translate(228,149)"/>
<path d="M0 0 C0.33 0 0.66 0 1 0 C1.02505615 0.92337158 1.0501123 1.84674316 1.07592773 2.7980957 C1.17109045 6.22546416 1.27032214 9.65266461 1.37231445 13.07983398 C1.4156133 14.56286015 1.45729199 16.04593454 1.49731445 17.52905273 C1.55513958 19.66144339 1.61879832 21.79359242 1.68359375 23.92578125 C1.72025146 25.20880127 1.75690918 26.49182129 1.79467773 27.8137207 C1.86561234 31.02111551 1.86561234 31.02111551 3 34 C2.9690625 35.85625 2.9690625 35.85625 2.9375 37.75 C2.88532109 41.79013877 3.62365086 45.17680795 5 49 C5.66 49.66 6.32 50.32 7 51 C5.68 51 4.36 51 3 51 C-0.7130168 44.28314135 -0.14693226 36.30080662 -0.09765625 28.80859375 C-0.0962413 27.97787857 -0.09482635 27.14716339 -0.09336853 26.29127502 C-0.0878317 23.67331125 -0.07529162 21.05543733 -0.0625 18.4375 C-0.05747681 16.64778771 -0.05291535 14.85807405 -0.04882812 13.06835938 C-0.03788308 8.71220567 -0.02066319 4.356118 0 0 Z " fill="#14327A" transform="translate(52,192)"/>
<path d="M0 0 C0.99 0 1.98 0 3 0 C3 0.66 3 1.32 3 2 C3.59167969 2.06058594 4.18335938 2.12117187 4.79296875 2.18359375 C8.90978208 2.62012371 12.95544533 3.08671346 17 4 C17 4.99 17 5.98 17 7 C17.66 7.66 18.32 8.32 19 9 C12.12108536 8.6057539 6.61039737 8.00866447 1.125 3.4375 C0 2 0 2 0 0 Z " fill="#316FB4" transform="translate(165,237)"/>
<path d="M0 0 C2.08450717 0.2831556 4.16758367 0.57685669 6.25 0.875 C7.99023438 1.11863281 7.99023438 1.11863281 9.765625 1.3671875 C14.32155312 2.25856474 16.27425846 3.06080506 19.125 6.75 C20.89039069 9.81001052 22.0325005 12.61375175 23 16 C22.01 15.67 21.02 15.34 20 15 C20 13.68 20 12.36 20 11 C19.05125 10.690625 18.1025 10.38125 17.125 10.0625 C14 9 14 9 12 8 C12 7.34 12 6.68 12 6 C11.319375 5.731875 10.63875 5.46375 9.9375 5.1875 C6.60289191 3.83946694 3.30256763 2.42463702 0 1 C0 0.67 0 0.34 0 0 Z " fill="#589FCD" transform="translate(275,135)"/>
<path d="M0 0 C1.10794922 -0.03673828 1.10794922 -0.03673828 2.23828125 -0.07421875 C7.85988992 -0.10396271 11.14616972 1.12454217 15.75 4.375 C17.1875 7.125 17.1875 7.125 17.75 9.375 C16.43 9.375 15.11 9.375 13.75 9.375 C13.09 7.395 12.43 5.415 11.75 3.375 C0.365 2.88 0.365 2.88 -11.25 2.375 C-7.46768056 -0.14654629 -4.38424194 0.00749443 0 0 Z " fill="#5988A0" transform="translate(213.25,38.625)"/>
<path d="M0 0 C1.485 0.99 1.485 0.99 3 2 C4.35012749 9.46041878 4.11688751 17.00263614 4.0625 24.5625 C4.05798828 25.76197266 4.05347656 26.96144531 4.04882812 28.19726562 C4.03713769 31.13156359 4.02075138 34.06575449 4 37 C2.68 37.66 1.36 38.32 0 39 C-1 38 -1 38 -1.0625 35.4375 C-1.041875 34.633125 -1.02125 33.82875 -1 33 C-0.34 33 0.32 33 1 33 C3.43714603 22.69048546 2.75809062 10.24433658 0 0 Z " fill="#4995D0" transform="translate(299,154)"/>
<path d="M0 0 C0.185625 0.9590625 0.185625 0.9590625 0.375 1.9375 C0.684375 2.9584375 0.684375 2.9584375 1 4 C1.66 4.33 2.32 4.66 3 5 C2.67 6.98 2.34 8.96 2 11 C3.98 11 5.96 11 8 11 C4.71195019 13.91227269 2.40114397 15.49701212 -2 16 C-3.04005702 12.61981469 -3.08004482 9.5219721 -3 6 C-2.34 6 -1.68 6 -1 6 C-0.67 4.02 -0.34 2.04 0 0 Z " fill="#305984" transform="translate(239,126)"/>
<path d="M0 0 C1.42944945 2.35438733 2.08661261 3.48032433 1.625 6.25 C1.41875 6.8275 1.2125 7.405 1 8 C0.01 8 -0.98 8 -2 8 C-2.33 8.99 -2.66 9.98 -3 11 C-3.66 11 -4.32 11 -5 11 C-5.165 11.7425 -5.33 12.485 -5.5 13.25 C-7.41511422 16.76104274 -9.43480849 17.65764225 -12.9296875 19.3984375 C-15.34742275 20.10094925 -16.65002698 19.81142566 -19 19 C-18.41992188 18.72027344 -17.83984375 18.44054687 -17.2421875 18.15234375 C-8.77516887 13.80705861 -4.40153379 8.29519829 0 0 Z " fill="#376089" transform="translate(297,188)"/>
<path d="M0 0 C0.33 0 0.66 0 1 0 C1.02505615 0.83660156 1.0501123 1.67320313 1.07592773 2.53515625 C1.17172836 5.67376726 1.27091655 8.81224881 1.37231445 11.95068359 C1.43632741 13.96313601 1.4965197 15.9757088 1.55664062 17.98828125 C1.78817911 25.86003039 1.78817911 25.86003039 2.5546875 33.69140625 C3.05122087 37.38056206 2.81395892 40.374183 2 44 C1.01 44.495 1.01 44.495 0 45 C0 30.15 0 15.3 0 0 Z " fill="#72ABCF" transform="translate(230,69)"/>
<path d="M0 0 C0.33 0 0.66 0 1 0 C1 5.61 1 11.22 1 17 C5.08048282 18.36016094 8.82098555 17.97208843 13.08984375 17.83984375 C15.98881983 17.99938472 17.55563627 18.49804156 20 20 C15.64667264 20.84023188 11.55557481 21.10770995 7.125 21.0625 C5.97257812 21.05347656 4.82015625 21.04445312 3.6328125 21.03515625 C2.76398438 21.02355469 1.89515625 21.01195312 1 21 C0.07811539 18.23434618 -0.11785222 16.61716298 -0.09765625 13.76953125 C-0.09282227 12.56586914 -0.09282227 12.56586914 -0.08789062 11.33789062 C-0.07951172 10.50451172 -0.07113281 9.67113281 -0.0625 8.8125 C-0.05798828 7.96751953 -0.05347656 7.12253906 -0.04882812 6.25195312 C-0.03705403 4.16793845 -0.0191189 2.08396023 0 0 Z " fill="#61B6E7" transform="translate(256,112)"/>
<path d="M0 0 C1.32 0.33 2.64 0.66 4 1 C2.625 3 2.625 3 1 5 C0.34 5 -0.32 5 -1 5 C-1.33 16.55 -1.66 28.1 -2 40 C-2.33 40 -2.66 40 -3 40 C-3.07422923 34.94632167 -3.12863915 29.8929616 -3.16479492 24.83886719 C-3.17986933 23.12006095 -3.20033229 21.40129309 -3.22631836 19.68261719 C-3.26276165 17.21019003 -3.27973958 14.738272 -3.29296875 12.265625 C-3.30845261 11.49881409 -3.32393646 10.73200317 -3.33988953 9.94195557 C-3.34123073 5.67765822 -3.0771703 3.08071952 0 0 Z " fill="#4270A9" transform="translate(55,101)"/>
<path d="M0 0 C2.89589652 -0.02706445 5.79153795 -0.04687029 8.6875 -0.0625 C9.91243164 -0.07506836 9.91243164 -0.07506836 11.16210938 -0.08789062 C19.4118705 -0.12129047 19.4118705 -0.12129047 23 1 C24.3125 3.0625 24.3125 3.0625 25 5 C22.69 5.66 20.38 6.32 18 7 C18 6.34 18 5.68 18 5 C17.34 5 16.68 5 16 5 C16 4.01 16 3.02 16 2 C15.01 2.495 15.01 2.495 14 3 C14 2.34 14 1.68 14 1 C9.38 1 4.76 1 0 1 C0 0.67 0 0.34 0 0 Z " fill="#6DC4EF" transform="translate(202,41)"/>
<path d="M0 0 C0 0.66 0 1.32 0 2 C-1.25554687 2.12117188 -2.51109375 2.24234375 -3.8046875 2.3671875 C-12.30439517 3.21045623 -20.66080618 4.08608666 -29 6 C-28 4 -28 4 -25.33203125 2.9296875 C-16.50879363 0.28565403 -9.22821508 -0.50488715 0 0 Z " fill="#304D82" transform="translate(137,98)"/>
<path d="M0 0 C0.66 0 1.32 0 2 0 C3.01390853 2.20283698 4.01104385 4.41098556 5 6.625 C5.28617187 7.24246094 5.57234375 7.85992187 5.8671875 8.49609375 C7.63829919 12.50217971 8.32255965 15.63200469 8 20 C7.67 19.01 7.34 18.02 7 17 C6.34 17 5.68 17 5 17 C4.67 14.36 4.34 11.72 4 9 C3.34 9 2.68 9 2 9 C1.67 8.01 1.34 7.02 1 6 C0.34 5.67 -0.32 5.34 -1 5 C-0.67 3.35 -0.34 1.7 0 0 Z " fill="#528EB7" transform="translate(327,135)"/>
<path d="M0 0 C0.33 0.99 0.66 1.98 1 3 C1.66 3 2.32 3 3 3 C3.33 5.64 3.66 8.28 4 11 C4.66 11 5.32 11 6 11 C6.33 13.64 6.66 16.28 7 19 C6.01 19.33 5.02 19.66 4 20 C3.87882812 19.39671875 3.75765625 18.7934375 3.6328125 18.171875 C3.46523438 17.37265625 3.29765625 16.5734375 3.125 15.75 C2.96257812 14.96109375 2.80015625 14.1721875 2.6328125 13.359375 C2.08627466 10.98844494 2.08627466 10.98844494 0.9375 8.9375 C-0.485096 5.99746826 -0.12341781 3.20886305 0 0 Z " fill="#52A3DE" transform="translate(328,141)"/>
<path d="M0 0 C1.32 0 2.64 0 4 0 C5.59712091 4.79136272 5.58050244 9.25849269 4 14 C3.67 14.66 3.34 15.32 3 16 C2.34 16 1.68 16 1 16 C0.92345464 11.48382401 0.89771304 7.40914783 2 3 C1.34 3 0.68 3 0 3 C0 2.01 0 1.02 0 0 Z " fill="#4380C4" transform="translate(84,108)"/>
<path d="M0 0 C0 0.99 0 1.98 0 3 C-2.64 3.33 -5.28 3.66 -8 4 C-8.12375 4.53625 -8.2475 5.0725 -8.375 5.625 C-9.12206016 8.4638286 -10.05303364 11.22223202 -11 14 C-12.67382511 11.44003219 -13.00085095 10.04169676 -12.9375 6.9375 C-12 4 -12 4 -9.5625 2.1875 C-8.716875 1.795625 -7.87125 1.40375 -7 1 C-4.53721199 -0.231394 -2.7204945 -0.07159196 0 0 Z " fill="#517C9E" transform="translate(256,98)"/>
<path d="M0 0 C-0.33 1.32 -0.66 2.64 -1 4 C-10.04028922 4.1723784 -18.98865693 3.6331684 -28 3 C-28 2.67 -28 2.34 -28 2 C-27.38479492 1.97494385 -26.76958984 1.9498877 -26.13574219 1.92407227 C-23.34029844 1.80781513 -20.54516702 1.68522358 -17.75 1.5625 C-16.78191406 1.52318359 -15.81382812 1.48386719 -14.81640625 1.44335938 C-13.88183594 1.40146484 -12.94726562 1.35957031 -11.984375 1.31640625 C-11.12553711 1.27974854 -10.26669922 1.24309082 -9.38183594 1.20532227 C-6.13322046 0.92528069 -3.28059575 0 0 0 Z " fill="#305A7F" transform="translate(278,208)"/>
<path d="M0 0 C0.33 0 0.66 0 1 0 C1.33 10.89 1.66 21.78 2 33 C1.34 33 0.68 33 0 33 C-1.49789402 30.00421196 -1.00082655 27.35592581 -0.87890625 24.0234375 C-0.85529526 23.33819 -0.83168427 22.6529425 -0.80735779 21.94692993 C-0.73072143 19.75607584 -0.64669754 17.56557528 -0.5625 15.375 C-0.50927924 13.89064236 -0.45653884 12.40626741 -0.40429688 10.921875 C-0.2751067 7.28103263 -0.13928926 3.64047156 0 0 Z " fill="#243E73" transform="translate(51,152)"/>
<path d="M0 0 C0.33 0.99 0.66 1.98 1 3 C0.01 4.485 0.01 4.485 -1 6 C-1.66 6 -2.32 6 -3 6 C-5.51083114 7.25541557 -5.87125446 8.50063488 -7 11 C-8.32 11 -9.64 11 -11 11 C-10.71125 10.443125 -10.4225 9.88625 -10.125 9.3125 C-8.91074456 7.00793602 -8.91074456 7.00793602 -8.3125 4.375 C-7 2 -7 2 -3.375 0.6875 C-2.26125 0.460625 -1.1475 0.23375 0 0 Z " fill="#285EAD" transform="translate(95,117)"/>
<path d="M0 0 C0.66 0.33 1.32 0.66 2 1 C0.13333333 6.73333333 0.13333333 6.73333333 -1.03125 9.0625 C-2.47022263 13.42583636 -2.47005043 17.74471567 -2.625 22.3125 C-2.66367188 23.24384766 -2.70234375 24.17519531 -2.7421875 25.13476562 C-2.83606313 27.42298407 -2.92174509 29.71120295 -3 32 C-3.33 32 -3.66 32 -4 32 C-4.11719175 28.16692831 -4.18758077 24.33432392 -4.25 20.5 C-4.28351563 19.42234375 -4.31703125 18.3446875 -4.3515625 17.234375 C-4.43607689 10.30419508 -3.65195291 5.92364015 0 0 Z " fill="#3B6778" transform="translate(198,42)"/>
<path d="M0 0 C2.58926331 2.58926331 2.37398043 4.02705279 2.625 7.625 C2.69976562 8.62789062 2.77453125 9.63078125 2.8515625 10.6640625 C2.90054688 11.43492187 2.94953125 12.20578125 3 13 C3.99 13.33 4.98 13.66 6 14 C5.67 14.66 5.34 15.32 5 16 C3.35 16 1.7 16 0 16 C-0.33 16.66 -0.66 17.32 -1 18 C-1.07427838 14.65747276 -1.06546953 12.1964086 0 9 C0.06740865 7.43881572 0.08514456 5.8749748 0.0625 4.3125 C0.05347656 3.50425781 0.04445312 2.69601563 0.03515625 1.86328125 C0.02355469 1.24839844 0.01195312 0.63351563 0 0 Z " fill="#234668" transform="translate(234,128)"/>
<path d="M0 0 C4.23940473 2.48516829 5.14258281 5.58863418 7 10 C8.31442362 11.35197858 9.6434836 12.69026002 11 14 C11 16 11 18 11 20 C0 6.65168539 0 6.65168539 0 0 Z " fill="#264A74" transform="translate(145,213)"/>
<path d="M0 0 C0.66 0.33 1.32 0.66 2 1 C-0.75 6.75 -0.75 6.75 -3 9 C-3.67292501 10.96690374 -3.67292501 10.96690374 -4.125 13.125 C-4.41375 14.40375 -4.7025 15.6825 -5 17 C-7 14 -7 14 -6.875 11.8125 C-5.68928519 8.00127382 -4.10440637 4.39881481 -2 1 C-1.34 0.67 -0.68 0.34 0 0 Z " fill="#345A7E" transform="translate(243,101)"/>
<path d="M0 0 C1.46856445 0.03383789 1.46856445 0.03383789 2.96679688 0.06835938 C5.37527455 0.12710273 7.78059078 0.20917871 10.1875 0.3125 C10.1875 0.6425 10.1875 0.9725 10.1875 1.3125 C9.49785156 1.37308594 8.80820313 1.43367188 8.09765625 1.49609375 C6.13745704 1.67087146 4.17783815 1.85224224 2.21875 2.0390625 C0.34608759 2.20798823 -1.52905549 2.35350769 -3.40625 2.4609375 C-8.24662162 2.76502588 -8.24662162 2.76502588 -12.25 5.375 C-12.765625 6.014375 -13.28125 6.65375 -13.8125 7.3125 C-14.4725 7.3125 -15.1325 7.3125 -15.8125 7.3125 C-15.8125 5.3125 -15.8125 5.3125 -13.98828125 2.70703125 C-9.3991416 -0.75316875 -5.57998177 -0.2435855 0 0 Z " fill="#3980C8" transform="translate(69.8125,100.6875)"/>
<path d="M0 0 C0.33 0.66 0.66 1.32 1 2 C0.05988318 3.70116376 -0.94895617 5.36504293 -2 7 C-2.68096422 8.32608822 -3.35330586 9.65686601 -4 11 C-5.32 11 -6.64 11 -8 11 C-7.9375 7.75 -7.9375 7.75 -7 4 C-4.7768466 2.1455908 -2.67169663 1.21440756 0 0 Z " fill="#2E4C6C" transform="translate(239,104)"/>
<path d="M0 0 C-0.433125 0.804375 -0.433125 0.804375 -0.875 1.625 C-2.16711808 4.35280484 -3.08558592 7.12612718 -4 10 C-4.99 10 -5.98 10 -7 10 C-6.67 10.99 -6.34 11.98 -6 13 C-7.32 13 -8.64 13 -10 13 C-9.67 11.35 -9.34 9.7 -9 8 C-7.68 8 -6.36 8 -5 8 C-5 5.69 -5 3.38 -5 1 C-3 0 -3 0 0 0 Z " fill="#2D81CD" transform="translate(318,216)"/>
<path d="M0 0 C0.33 0 0.66 0 1 0 C1 3.63 1 7.26 1 11 C1.66 11 2.32 11 3 11 C3 12.98 3 14.96 3 17 C2.34 17.33 1.68 17.66 1 18 C-1.40312827 12.44276587 -1.43634266 6.95658462 -1 1 C-0.67 0.67 -0.34 0.34 0 0 Z " fill="#3D81B3" transform="translate(245,112)"/>
<path d="M0 0 C1.875 0.25 1.875 0.25 4 1 C5.25 3.0625 5.25 3.0625 6 5 C6.99 5 7.98 5 9 5 C9 6.98 9 8.96 9 11 C5.36603447 9.99056513 4.06608233 9.08394242 1.6875 6.0625 C0 3 0 3 0 0 Z " fill="#071B4A" transform="translate(172,188)"/>
<path d="M0 0 C1.12894876 0.93274109 2.25300876 1.87140122 3.375 2.8125 C4.00148438 3.33457031 4.62796875 3.85664062 5.2734375 4.39453125 C7 6 7 6 9 9 C7.1875 9.625 7.1875 9.625 5 10 C1.95623822 7.97082548 1.25189126 7.27417715 0 4 C0 2.68 0 1.36 0 0 Z " fill="#5695BE" transform="translate(309,112)"/>
<path d="M0 0 C-1.09068668 3.77545388 -1.9083091 6.47043472 -5 9 C-5.99 8.67 -6.98 8.34 -8 8 C-7.32253522 3.25774652 -4.9532836 0 0 0 Z " fill="#3B729C" transform="translate(231,187)"/>
<path d="M0 0 C2.02558881 3.34939881 2.21738987 5.86962551 2.125 9.75 C2.10695312 10.73484375 2.08890625 11.7196875 2.0703125 12.734375 C2.04710937 13.48203125 2.02390625 14.2296875 2 15 C2.66 15.33 3.32 15.66 4 16 C3.67 17.32 3.34 18.64 3 20 C1.13437358 18.42702086 0.09761557 17.54489783 -0.34057617 15.09887695 C-0.32486572 14.40238037 -0.30915527 13.70588379 -0.29296875 12.98828125 C-0.28330078 12.23095703 -0.27363281 11.47363281 -0.26367188 10.69335938 C-0.23853516 9.90767578 -0.21339844 9.12199219 -0.1875 8.3125 C-0.17396484 7.51521484 -0.16042969 6.71792969 -0.14648438 5.89648438 C-0.11117089 3.93070033 -0.05736447 1.96526418 0 0 Z " fill="#4294D5" transform="translate(196,168)"/>
<path d="M0 0 C1.32 0.33 2.64 0.66 4 1 C4.66 3.31 5.32 5.62 6 8 C4.68 8 3.36 8 2 8 C1.67 8.66 1.34 9.32 1 10 C-0.60725635 6.78548731 -0.05748185 3.56387464 0 0 Z " fill="#5AB4EA" transform="translate(305,111)"/>
<path d="M0 0 C1.4540625 0.0309375 1.4540625 0.0309375 2.9375 0.0625 C0.81524717 2.3566487 -1.23682883 3.91651234 -4 5.375 C-5.00353516 5.92607422 -5.00353516 5.92607422 -6.02734375 6.48828125 C-8.0625 7.0625 -8.0625 7.0625 -10.31640625 6.16796875 C-10.89261719 5.80316406 -11.46882813 5.43835938 -12.0625 5.0625 C-11.49660156 4.78535156 -10.93070312 4.50820312 -10.34765625 4.22265625 C-9.61417969 3.86042969 -8.88070313 3.49820313 -8.125 3.125 C-7.02865234 2.58552734 -7.02865234 2.58552734 -5.91015625 2.03515625 C-2.12662005 0.04340041 -2.12662005 0.04340041 0 0 Z " fill="#326191" transform="translate(300.0625,235.9375)"/>
<path d="M0 0 C1.58409994 0.11487748 3.16728963 0.24234508 4.75 0.375 C6.07257813 0.47941406 6.07257813 0.47941406 7.421875 0.5859375 C11.16923314 1.18778593 13.32588569 2.32588569 16 5 C10.01488629 4.65697965 5.24882694 4.17692157 0 1 C0 0.67 0 0.34 0 0 Z " fill="#2B5681" transform="translate(168,241)"/>
<path d="M0 0 C2.64 0 5.28 0 8 0 C8 0.99 8 1.98 8 3 C9.65 3 11.3 3 13 3 C13 4.65 13 6.3 13 8 C9.535 6.02 9.535 6.02 6 4 C6 3.34 6 2.68 6 2 C3.03 1.505 3.03 1.505 0 1 C0 0.67 0 0.34 0 0 Z " fill="#1D315E" transform="translate(127,138)"/>
<path d="M0 0 C-1 3 -1 3 -3.0625 4.1875 C-3.701875 4.455625 -4.34125 4.72375 -5 5 C-5.99 4.34 -6.98 3.68 -8 3 C-8.33 3.99 -8.66 4.98 -9 6 C-9.33 5.01 -9.66 4.02 -10 3 C-9 1 -9 1 -6.125 -0.1875 C-3 -1 -3 -1 0 0 Z " fill="#2A549B" transform="translate(106,136)"/>
<path d="M0 0 C10.55808656 1.55808656 10.55808656 1.55808656 15 6 C8.43890675 6.37138264 8.43890675 6.37138264 6.375 4.625 C5.92125 4.08875 5.4675 3.5525 5 3 C2.40084462 1.80972016 2.40084462 1.80972016 0 1 C0 0.67 0 0.34 0 0 Z " fill="#2B4B7E" transform="translate(142,100)"/>
<path d="M0 0 C0.66 0 1.32 0 2 0 C2 5.61 2 11.22 2 17 C-0.33661032 12.32677935 -1.15730101 9.90135306 -0.5625 4.8125 C-0.46066406 3.91144531 -0.35882813 3.01039063 -0.25390625 2.08203125 C-0.17011719 1.39496094 -0.08632812 0.70789063 0 0 Z " fill="#4FA0DD" transform="translate(228,149)"/>
<path d="M0 0 C3.21167037 0.11074725 4.30912812 1.27399992 6.75 3.4375 C9 6 9 6 9 8 C7.68 8 6.36 8 5 8 C4.34 6.02 3.68 4.04 3 2 C1.35 2 -0.3 2 -2 2 C-1.34 1.34 -0.68 0.68 0 0 Z " fill="#679AB7" transform="translate(222,40)"/>
<path d="M0 0 C0.66 0 1.32 0 2 0 C2.66 0.99 3.32 1.98 4 3 C6.05925139 3.72382467 6.05925139 3.72382467 8 4 C8 6.31 8 8.62 8 11 C4.31993178 7.61831569 2.0214155 4.57478244 0 0 Z " fill="#172F65" transform="translate(149,156)"/>
<path d="M0 0 C0.66 0 1.32 0 2 0 C2.268125 0.94875 2.53625 1.8975 2.8125 2.875 C3.74986588 6.25267273 3.74986588 6.25267273 7 8 C5.02 8.66 3.04 9.32 1 10 C-0.04005702 6.61981469 -0.08004482 3.5219721 0 0 Z " fill="#2C5177" transform="translate(236,132)"/>
<path d="M0 0 C0.49628906 0.26554688 0.99257812 0.53109375 1.50390625 0.8046875 C5.94978522 3.11620712 10.13900324 4.78475081 15 6 C15 6.33 15 6.66 15 7 C12.36 7 9.72 7 7 7 C7 6.34 7 5.68 7 5 C5.35 5 3.7 5 2 5 C1.34 3.35 0.68 1.7 0 0 Z " fill="#244768" transform="translate(185,203)"/>
<path d="M0 0 C4.69978858 2.89217759 4.69978858 2.89217759 5.5546875 6.046875 C5.78597215 8.02330745 5.90062818 10.01256369 6 12 C4.5 10.6875 4.5 10.6875 3 9 C3 8.01 3 7.02 3 6 C2.34 6 1.68 6 1 6 C0.67 4.02 0.34 2.04 0 0 Z " fill="#294684" transform="translate(165,112)"/>
<path d="M0 0 C3.3 0.99 6.6 1.98 10 3 C9.01 3.495 9.01 3.495 8 4 C8 4.66 8 5.32 8 6 C8.99 6.33 9.98 6.66 11 7 C10.01 7.495 10.01 7.495 9 8 C7.68388323 7.04663979 6.37221039 6.08714226 5.0625 5.125 C4.33160156 4.59132812 3.60070312 4.05765625 2.84765625 3.5078125 C1 2 1 2 0 0 Z " fill="#1E4471" transform="translate(157,233)"/>
<path d="M0 0 C0.33 0.66 0.66 1.32 1 2 C1.66 2.33 2.32 2.66 3 3 C1.35 4.65 -0.3 6.3 -2 8 C-2.99 7.67 -3.98 7.34 -5 7 C-5 6.34 -5 5.68 -5 5 C-4.01 5 -3.02 5 -2 5 C-1.7834375 4.0409375 -1.7834375 4.0409375 -1.5625 3.0625 C-1 1 -1 1 0 0 Z " fill="#2F6598" transform="translate(316,221)"/>
<path d="M0 0 C-3.625 4.875 -3.625 4.875 -7 6 C-7.33 4.68 -7.66 3.36 -8 2 C-4.77208445 -0.1519437 -3.71599191 -0.20086443 0 0 Z " fill="#30659D" transform="translate(312,229)"/>
<path d="M0 0 C2.5 1.375 2.5 1.375 5 3 C5 3.66 5 4.32 5 5 C5.99 5 6.98 5 8 5 C8 5.66 8 6.32 8 7 C5.23723823 6.47731534 2.6739124 5.89130413 0 5 C0 3.35 0 1.7 0 0 Z " fill="#59B3EB" transform="translate(313,121)"/>
<path d="M0 0 C0.66 0 1.32 0 2 0 C3.80230168 3.82989106 4.19622241 6.78121808 4 11 C3.67 10.01 3.34 9.02 3 8 C2.34 8 1.68 8 1 8 C0.67 5.36 0.34 2.72 0 0 Z " fill="#43739C" transform="translate(331,144)"/>
<path d="M0 0 C1.32 0.33 2.64 0.66 4 1 C3.360625 1.886875 2.72125 2.77375 2.0625 3.6875 C0.19170243 6.69211428 -0.59423966 8.5510371 -1 12 C-1.33 12 -1.66 12 -2 12 C-2.17835515 7.45194365 -1.99785435 4.1205746 0 0 Z " fill="#1E3D52" transform="translate(234,144)"/>
<path d="M0 0 C3.93673644 1.31224548 6.22719294 2.91910327 9 6 C5.98968256 6.93423645 5.13349732 7.04449911 2 6 C0.8125 2.9375 0.8125 2.9375 0 0 Z " fill="#5090AE" transform="translate(299,106)"/>
<path d="M0 0 C1 3 1 3 0.22265625 4.82421875 C-0.8515625 6.54947917 -1.92578125 8.27473958 -3 10 C-3.33 10 -3.66 10 -4 10 C-4 8.02 -4 6.04 -4 4 C-3.34 4 -2.68 4 -2 4 C-1.34 2.68 -0.68 1.36 0 0 Z " fill="#346292" transform="translate(330,203)"/>
<path d="M0 0 C0.66 0.33 1.32 0.66 2 1 C0.7874262 4.72433382 -0.50859979 8.37802806 -2 12 C-2.33 12 -2.66 12 -3 12 C-3.2954439 6.97745369 -2.98514628 4.10457614 0 0 Z " fill="#568EA7" transform="translate(198,42)"/>
<path d="M0 0 C0 0.66 0 1.32 0 2 C-4.455 3.485 -4.455 3.485 -9 5 C-9 4.01 -9 3.02 -9 2 C-5.62902617 0.50178941 -3.79557881 0 0 0 Z " fill="#4088C3" transform="translate(287,206)"/>
<path d="M0 0 C1.8125 0.125 1.8125 0.125 4 1 C5.8125 3.9375 5.8125 3.9375 7 7 C6.67 7.66 6.34 8.32 6 9 C5.7525 8.195625 5.505 7.39125 5.25 6.5625 C4.27761141 3.828919 4.27761141 3.828919 1.875 3.1875 C1.25625 3.125625 0.6375 3.06375 0 3 C0 2.01 0 1.02 0 0 Z " fill="#22407E" transform="translate(140,144)"/>
<path d="M0 0 C1.65 0 3.3 0 5 0 C5.33 0.99 5.66 1.98 6 3 C6.99 3.33 7.98 3.66 9 4 C7.35 4.33 5.7 4.66 4 5 C2.68 3.35 1.36 1.7 0 0 Z " fill="#6ABCEB" transform="translate(294,106)"/>
<path d="M0 0 C1.65 0 3.3 0 5 0 C5 0.66 5 1.32 5 2 C6.98 2.66 8.96 3.32 11 4 C9 5 9 5 5.5 4.25 C2 3 2 3 0 0 Z " fill="#33589E" transform="translate(137,99)"/>
<path d="M0 0 C0.66 0.66 1.32 1.32 2 2 C1.7578125 3.9453125 1.7578125 3.9453125 1.125 6.125 C0.92132813 6.84945312 0.71765625 7.57390625 0.5078125 8.3203125 C0.34023437 8.87460938 0.17265625 9.42890625 0 10 C-2 7 -2 7 -1.6875 4.4375 C-1 2 -1 2 0 0 Z " fill="#2D5D8A" transform="translate(238,108)"/>
<path d="M0 0 C0.99 0.66 1.98 1.32 3 2 C2.01 4.31 1.02 6.62 0 9 C-1.76462683 5.91190305 -2 4.76687864 -2 1 C-1.34 0.67 -0.68 0.34 0 0 Z " fill="#3B7DAA" transform="translate(245,103)"/>
<path d="M0 0 C0.99 0.495 0.99 0.495 2 1 C2.4140625 3.28515625 2.4140625 3.28515625 2.625 6.0625 C2.69976562 6.98160156 2.77453125 7.90070313 2.8515625 8.84765625 C2.92503906 9.91306641 2.92503906 9.91306641 3 11 C-0.16492205 7.24528933 -0.28301994 4.90567888 0 0 Z " fill="#325F9A" transform="translate(145,206)"/>
<path d="M0 0 C1.39195915 4.17587745 -0.17676781 6.13474776 -2 10 C-2.33 10 -2.66 10 -3 10 C-3.36923077 4.58461538 -3.36923077 4.58461538 -1.5 1.625 C-1.005 1.08875 -0.51 0.5525 0 0 Z " fill="#366081" transform="translate(334,193)"/>
<path d="M0 0 C1.62818946 0.22830701 3.2526349 0.48343576 4.875 0.75 C6.23238281 0.95882812 6.23238281 0.95882812 7.6171875 1.171875 C10 2 10 2 11.3203125 4.078125 C11.54460937 4.71234375 11.76890625 5.3465625 12 6 C7.96479403 4.41037341 3.98188718 2.71767682 0 1 C0 0.67 0 0.34 0 0 Z " fill="#3E6F8B" transform="translate(275,135)"/>
<path d="M0 0 C0.598125 0.309375 1.19625 0.61875 1.8125 0.9375 C4.08956772 2.10209704 4.08956772 2.10209704 7 3 C7 3.66 7 4.32 7 5 C4.69 4.67 2.38 4.34 0 4 C0 2.68 0 1.36 0 0 Z " fill="#58A9DC" transform="translate(278,132)"/>
<path d="M0 0 C2 3 2 3 2 5 C2.61875 4.79375 3.2375 4.5875 3.875 4.375 C4.57625 4.25125 5.2775 4.1275 6 4 C6.66 4.66 7.32 5.32 8 6 C5.36 6.33 2.72 6.66 0 7 C-1.33332095 4.3333581 -0.67102033 2.83319697 0 0 Z " fill="#38678B" transform="translate(241,131)"/>
<path d="M0 0 C0.33 0.99 0.66 1.98 1 3 C0.01 4.485 0.01 4.485 -1 6 C-2.32 5.67 -3.64 5.34 -5 5 C-4.1875 3.0625 -4.1875 3.0625 -3 1 C-2.01 0.67 -1.02 0.34 0 0 Z " fill="#2F64B7" transform="translate(95,117)"/>
<path d="M0 0 C1.875 0.1875 1.875 0.1875 4 1 C5.25 3.5625 5.25 3.5625 6 6 C5.01 6 4.02 6 3 6 C2.01 4.02 1.02 2.04 0 0 Z " fill="#336BAD" transform="translate(154,227)"/>
<path d="M0 0 C0.33 0 0.66 0 1 0 C1.25 2.25 1.25 2.25 1 5 C-1 7.3125 -1 7.3125 -3 9 C-2.25 2.25 -2.25 2.25 0 0 Z " fill="#438AC9" transform="translate(330,198)"/>
<path d="M0 0 C0.66 0 1.32 0 2 0 C3.25664978 2.90600261 4 4.79604584 4 8 C2.68 7.34 1.36 6.68 0 6 C0 4.02 0 2.04 0 0 Z " fill="#58ACE3" transform="translate(321,128)"/>
<path d="M0 0 C1.42944945 2.35438733 2.08661261 3.48032433 1.625 6.25 C1.41875 6.8275 1.2125 7.405 1 8 C0.01 7.67 -0.98 7.34 -2 7 C-1.42415568 4.61435923 -0.77772405 2.33317216 0 0 Z " fill="#3F77A8" transform="translate(297,188)"/>
<path d="M0 0 C1.32 0.33 2.64 0.66 4 1 C4 2.32 4 3.64 4 5 C4.99 5.33 5.98 5.66 7 6 C6.34 6.66 5.68 7.32 5 8 C4.16382818 6.8562364 3.33113541 5.70992861 2.5 4.5625 C2.0359375 3.92441406 1.571875 3.28632813 1.09375 2.62890625 C0 1 0 1 0 0 Z " fill="#4877A6" transform="translate(291,145)"/>
<path d="M0 0 C0.66 0 1.32 0 2 0 C2 0.66 2 1.32 2 2 C1.01 2.495 1.01 2.495 0 3 C-0.28875 3.66 -0.5775 4.32 -0.875 5 C-2 7 -2 7 -4.125 7.75 C-5.053125 7.87375 -5.053125 7.87375 -6 8 C-6 6 -6 6 -3.5625 3.4375 C-2.716875 2.633125 -1.87125 1.82875 -1 1 C-0.67 0.67 -0.34 0.34 0 0 Z " fill="#26467B" transform="translate(97,111)"/>
<path d="M0 0 C-1.49097658 3.7952131 -3.75700849 5.61042731 -7 8 C-6.44414399 4.1090079 -4.34122117 0 0 0 Z " fill="#2466BE" transform="translate(76,136)"/>
<path d="M0 0 C0.66 0.33 1.32 0.66 2 1 C2.40729228 3.32156597 2.74438677 5.6568787 3 8 C2.34 6.68 1.68 5.36 1 4 C0.01 4 -0.98 4 -2 4 C-2 3.34 -2 2.68 -2 2 C-1.34 2 -0.68 2 0 2 C0 1.34 0 0.68 0 0 Z " fill="#3D77B4" transform="translate(83,101)"/>
</svg>
